<?xml version="1.0" encoding="utf-8" ?>
<svg viewBox="0 0 192 224" baseProfile="full" version="1.1" xmlns="http://www.w3.org/2000/svg" xmlns:ev="http://www.w3.org/2001/xml-events" xmlns:xlink="http://www.w3.org/1999/xlink"><defs /><g><path d="M 0,56 0,168 96,224 96,112 z" fill="#a4a4a4" stroke="none" /><path d="M 0,56 0,63 6,66.5 6,59.5 z" fill="#af3614" stroke="none" /><path d="M 6,59.5 6,66.5 12,70.0 12,63.0 z" fill="#a03112" stroke="none" /><path d="M 12,63.0 12,70.0 18,73.5 18,66.5 z" fill="#922c10" stroke="none" /><path d="M 18,66.5 18,73.5 24,77.0 24,70.0 z" fill="#85290f" stroke="none" /><path d="M 24,70.0 24,77.0 30,80.5 30,73.5 z" fill="#af3614" stroke="none" /><path d="M 30,73.5 30,80.5 36,84.0 36,77.0 z" fill="#a03112" stroke="none" /><path d="M 36,77.0 36,84.0 42,87.5 42,80.5 z" fill="#922c10" stroke="none" /><path d="M 42,80.5 42,87.5 48,91.0 48,84.0 z" fill="#85290f" stroke="none" /><path d="M 48,84.0 48,91.0 54,94.5 54,87.5 z" fill="#af3614" stroke="none" /><path d="M 54,87.5 54,94.5 60,98.0 60,91.0 z" fill="#a03112" stroke="none" /><path d="M 60,91.0 60,98.0 66,101.5 66,94.5 z" fill="#922c10" stroke="none" /><path d="M 66,94.5 66,101.5 72,105.0 72,98.0 z" fill="#85290f" stroke="none" /><path d="M 72,98.0 72,105.0 78,108.5 78,101.5 z" fill="#af3614" stroke="none" /><path d="M 78,101.5 78,108.5 84,112.0 84,105.0 z" fill="#a03112" stroke="none" /><path d="M 84,105.0 84,112.0 90,115.5 90,108.5 z" fill="#922c10" stroke="none" /><path d="M 90,108.5 90,115.5 96,119.0 96,112.0 z" fill="#85290f" stroke="none" /><path d="M 0,63 0,70 6,73.5 6,66.5 z" fill="#af3614" stroke="none" /><path d="M 6,66.5 6,73.5 12,77.0 12,70.0 z" fill="#9a3012" stroke="none" /><path d="M 12,70.0 12,77.0 18,80.5 18,73.5 z" fill="#862910" stroke="none" /><path d="M 18,73.5 18,80.5 24,84.0 24,77.0 z" fill="#74240d" stroke="none" /><path d="M 24,77.0 24,84.0 30,87.5 30,80.5 z" fill="#af3614" stroke="none" /><path d="M 30,80.5 30,87.5 36,91.0 36,84.0 z" fill="#9a3012" stroke="none" /><path d="M 36,84.0 36,91.0 42,94.5 42,87.5 z" fill="#862910" stroke="none" /><path d="M 42,87.5 42,94.5 48,98.0 48,91.0 z" fill="#74240d" stroke="none" /><path d="M 48,91.0 48,98.0 54,101.5 54,94.5 z" fill="#af3614" stroke="none" /><path d="M 54,94.5 54,101.5 60,105.0 60,98.0 z" fill="#9a3012" stroke="none" /><path d="M 60,98.0 60,105.0 66,108.5 66,101.5 z" fill="#862910" stroke="none" /><path d="M 66,101.5 66,108.5 72,112.0 72,105.0 z" fill="#74240d" stroke="none" /><path d="M 72,105.0 72,112.0 78,115.5 78,108.5 z" fill="#af3614" stroke="none" /><path d="M 78,108.5 78,115.5 84,119.0 84,112.0 z" fill="#9a3012" stroke="none" /><path d="M 84,112.0 84,119.0 90,122.5 90,115.5 z" fill="#862910" stroke="none" /><path d="M 90,115.5 90,122.5 96,126.0 96,119.0 z" fill="#74240d" stroke="none" /><path d="M 0,70 0,77 6,80.5 6,73.5 z" fill="#af3614" stroke="none" /><path d="M 6,73.5 6,80.5 12,84.0 12,77.0 z" fill="#9a3012" stroke="none" /><path d="M 12,77.0 12,84.0 18,87.5 18,80.5 z" fill="#862910" stroke="none" /><path d="M 18,80.5 18,87.5 24,91.0 24,84.0 z" fill="#74240d" stroke="none" /><path d="M 24,84.0 24,91.0 30,94.5 30,87.5 z" fill="#af3614" stroke="none" /><path d="M 30,87.5 30,94.5 36,98.0 36,91.0 z" fill="#9a3012" stroke="none" /><path d="M 36,91.0 36,98.0 42,101.5 42,94.5 z" fill="#862910" stroke="none" /><path d="M 42,94.5 42,101.5 48,105.0 48,98.0 z" fill="#74240d" stroke="none" /><path d="M 48,98.0 48,105.0 54,108.5 54,101.5 z" fill="#af3614" stroke="none" /><path d="M 54,101.5 54,108.5 60,112.0 60,105.0 z" fill="#9a3012" stroke="none" /><path d="M 60,105.0 60,112.0 66,115.5 66,108.5 z" fill="#862910" stroke="none" /><path d="M 66,108.5 66,115.5 72,119.0 72,112.0 z" fill="#74240d" stroke="none" /><path d="M 72,112.0 72,119.0 78,122.5 78,115.5 z" fill="#af3614" stroke="none" /><path d="M 78,115.5 78,122.5 84,126.0 84,119.0 z" fill="#9a3012" stroke="none" /><path d="M 84,119.0 84,126.0 90,129.5 90,122.5 z" fill="#862910" stroke="none" /><path d="M 90,122.5 90,129.5 96,133.0 96,126.0 z" fill="#74240d" stroke="none" /><path d="M 0,77 0,84 6,87.5 6,80.5 z" fill="#af3614" stroke="none" /><path d="M 6,80.5 6,87.5 12,91.0 12,84.0 z" fill="#9a3012" stroke="none" /><path d="M 12,84.0 12,91.0 18,94.5 18,87.5 z" fill="#862910" stroke="none" /><path d="M 18,87.5 18,94.5 24,98.0 24,91.0 z" fill="#74240d" stroke="none" /><path d="M 24,91.0 24,98.0 30,101.5 30,94.5 z" fill="#af3614" stroke="none" /><path d="M 30,94.5 30,101.5 36,105.0 36,98.0 z" fill="#9a3012" stroke="none" /><path d="M 36,98.0 36,105.0 42,108.5 42,101.5 z" fill="#862910" stroke="none" /><path d="M 42,101.5 42,108.5 48,112.0 48,105.0 z" fill="#74240d" stroke="none" /><path d="M 48,105.0 48,112.0 54,115.5 54,108.5 z" fill="#af3614" stroke="none" /><path d="M 54,108.5 54,115.5 60,119.0 60,112.0 z" fill="#9a3012" stroke="none" /><path d="M 60,112.0 60,119.0 66,122.5 66,115.5 z" fill="#862910" stroke="none" /><path d="M 66,115.5 66,122.5 72,126.0 72,119.0 z" fill="#74240d" stroke="none" /><path d="M 72,119.0 72,126.0 78,129.5 78,122.5 z" fill="#af3614" stroke="none" /><path d="M 78,122.5 78,129.5 84,133.0 84,126.0 z" fill="#9a3012" stroke="none" /><path d="M 84,126.0 84,133.0 90,136.5 90,129.5 z" fill="#862910" stroke="none" /><path d="M 90,129.5 90,136.5 96,140.0 96,133.0 z" fill="#74240d" stroke="none" /><path d="M 0,84 0,91 6,94.5 6,87.5 z" fill="#af3614" stroke="none" /><path d="M 6,87.5 6,94.5 12,98.0 12,91.0 z" fill="#9a3012" stroke="none" /><path d="M 12,91.0 12,98.0 18,101.5 18,94.5 z" fill="#862910" stroke="none" /><path d="M 18,94.5 18,101.5 24,105.0 24,98.0 z" fill="#74240d" stroke="none" /><path d="M 24,98.0 24,105.0 30,108.5 30,101.5 z" fill="#af3614" stroke="none" /><path d="M 30,101.5 30,108.5 36,112.0 36,105.0 z" fill="#9a3012" stroke="none" /><path d="M 36,105.0 36,112.0 42,115.5 42,108.5 z" fill="#862910" stroke="none" /><path d="M 42,108.5 42,115.5 48,119.0 48,112.0 z" fill="#74240d" stroke="none" /><path d="M 48,112.0 48,119.0 54,122.5 54,115.5 z" fill="#af3614" stroke="none" /><path d="M 54,115.5 54,122.5 60,126.0 60,119.0 z" fill="#9a3012" stroke="none" /><path d="M 60,119.0 60,126.0 66,129.5 66,122.5 z" fill="#862910" stroke="none" /><path d="M 66,122.5 66,129.5 72,133.0 72,126.0 z" fill="#74240d" stroke="none" /><path d="M 72,126.0 72,133.0 78,136.5 78,129.5 z" fill="#af3614" stroke="none" /><path d="M 78,129.5 78,136.5 84,140.0 84,133.0 z" fill="#9a3012" stroke="none" /><path d="M 84,133.0 84,140.0 90,143.5 90,136.5 z" fill="#862910" stroke="none" /><path d="M 90,136.5 90,143.5 96,147.0 96,140.0 z" fill="#74240d" stroke="none" /><path d="M 0,91 0,98 6,101.5 6,94.5 z" fill="#afafaf" stroke="none" /><path d="M 6,94.5 6,101.5 12,105.0 12,98.0 z" fill="#afafaf" stroke="none" /><path d="M 12,98.0 12,105.0 18,108.5 18,101.5 z" fill="#afafaf" stroke="none" /><path d="M 24,105.0 24,112.0 30,115.5 30,108.5 z" fill="#afafaf" stroke="none" /><path d="M 30,108.5 30,115.5 36,119.0 36,112.0 z" fill="#afafaf" stroke="none" /><path d="M 36,112.0 36,119.0 42,122.5 42,115.5 z" fill="#afafaf" stroke="none" /><path d="M 42,115.5 42,122.5 48,126.0 48,119.0 z" fill="#afafaf" stroke="none" /><path d="M 54,122.5 54,129.5 60,133.0 60,126.0 z" fill="#afafaf" stroke="none" /><path d="M 60,126.0 60,133.0 66,136.5 66,129.5 z" fill="#afafaf" stroke="none" /><path d="M 78,136.5 78,143.5 84,147.0 84,140.0 z" fill="#afafaf" stroke="none" /><path d="M 84,140.0 84,147.0 90,150.5 90,143.5 z" fill="#afafaf" stroke="none" /><path d="M 6,101.5 6,108.5 12,112.0 12,105.0 z" fill="#afafaf" stroke="none" /><path d="M 12,105.0 12,112.0 18,115.5 18,108.5 z" fill="#000000" stroke="none" /><path d="M 18,108.5 18,115.5 24,119.0 24,112.0 z" fill="#000000" stroke="none" /><path d="M 24,112.0 24,119.0 30,122.5 30,115.5 z" fill="#000000" stroke="none" /><path d="M 36,119.0 36,126.0 42,129.5 42,122.5 z" fill="#000000" stroke="none" /><path d="M 48,126.0 48,133.0 54,136.5 54,129.5 z" fill="#afafaf" stroke="none" /><path d="M 54,129.5 54,136.5 60,140.0 60,133.0 z" fill="#000000" stroke="none" /><path d="M 66,136.5 66,143.5 72,147.0 72,140.0 z" fill="#000000" stroke="none" /><path d="M 72,140.0 72,147.0 78,150.5 78,143.5 z" fill="#000000" stroke="none" /><path d="M 78,143.5 78,150.5 84,154.0 84,147.0 z" fill="#000000" stroke="none" /><path d="M 84,147.0 84,154.0 90,157.5 90,150.5 z" fill="#afafaf" stroke="none" /><path d="M 18,115.5 18,122.5 24,126.0 24,119.0 z" fill="#000000" stroke="none" /><path d="M 36,126.0 36,133.0 42,136.5 42,129.5 z" fill="#000000" stroke="none" /><path d="M 42,129.5 42,136.5 48,140.0 48,133.0 z" fill="#000000" stroke="none" /><path d="M 54,136.5 54,143.5 60,147.0 60,140.0 z" fill="#000000" stroke="none" /><path d="M 72,147.0 72,154.0 78,157.5 78,150.5 z" fill="#000000" stroke="none" /><path d="M 18,122.5 18,129.5 24,133.0 24,126.0 z" fill="#000000" stroke="none" /><path d="M 36,133.0 36,140.0 42,143.5 42,136.5 z" fill="#000000" stroke="none" /><path d="M 48,140.0 48,147.0 54,150.5 54,143.5 z" fill="#000000" stroke="none" /><path d="M 54,143.5 54,150.5 60,154.0 60,147.0 z" fill="#000000" stroke="none" /><path d="M 72,154.0 72,161.0 78,164.5 78,157.5 z" fill="#000000" stroke="none" /><path d="M 6,122.5 6,129.5 12,133.0 12,126.0 z" fill="#8c8c8c" stroke="none" /><path d="M 12,126.0 12,133.0 18,136.5 18,129.5 z" fill="#8c8c8c" stroke="none" /><path d="M 18,129.5 18,136.5 24,140.0 24,133.0 z" fill="#000000" stroke="none" /><path d="M 30,136.5 30,143.5 36,147.0 36,140.0 z" fill="#8c8c8c" stroke="none" /><path d="M 36,140.0 36,147.0 42,150.5 42,143.5 z" fill="#000000" stroke="none" /><path d="M 54,150.5 54,157.5 60,161.0 60,154.0 z" fill="#000000" stroke="none" /><path d="M 72,161.0 72,168.0 78,171.5 78,164.5 z" fill="#000000" stroke="none" /><path d="M 78,164.5 78,171.5 84,175.0 84,168.0 z" fill="#8c8c8c" stroke="none" /><path d="M 84,168.0 84,175.0 90,178.5 90,171.5 z" fill="#8c8c8c" stroke="none" /><path d="M 0,126 0,133 6,136.5 6,129.5 z" fill="#8c8c8c" stroke="none" /><path d="M 6,129.5 6,136.5 12,140.0 12,133.0 z" fill="#8c8c8c" stroke="none" /><path d="M 18,136.5 18,143.5 24,147.0 24,140.0 z" fill="#8c8c8c" stroke="none" /><path d="M 24,140.0 24,147.0 30,150.5 30,143.5 z" fill="#8c8c8c" stroke="none" /><path d="M 36,147.0 36,154.0 42,157.5 42,150.5 z" fill="#8c8c8c" stroke="none" /><path d="M 42,150.5 42,157.5 48,161.0 48,154.0 z" fill="#8c8c8c" stroke="none" /><path d="M 48,154.0 48,161.0 54,164.5 54,157.5 z" fill="#8c8c8c" stroke="none" /><path d="M 60,161.0 60,168.0 66,171.5 66,164.5 z" fill="#8c8c8c" stroke="none" /><path d="M 66,164.5 66,171.5 72,175.0 72,168.0 z" fill="#8c8c8c" stroke="none" /><path d="M 78,171.5 78,178.5 84,182.0 84,175.0 z" fill="#8c8c8c" stroke="none" /><path d="M 84,175.0 84,182.0 90,185.5 90,178.5 z" fill="#8c8c8c" stroke="none" /><path d="M 90,178.5 90,185.5 96,189.0 96,182.0 z" fill="#8c8c8c" stroke="none" /><path d="M 0,133 0,140 6,143.5 6,136.5 z" fill="#912c10" stroke="none" /><path d="M 6,136.5 6,143.5 12,147.0 12,140.0 z" fill="#80270f" stroke="none" /><path d="M 12,140.0 12,147.0 18,150.5 18,143.5 z" fill="#6f220c" stroke="none" /><path d="M 18,143.5 18,150.5 24,154.0 24,147.0 z" fill="#601d0b" stroke="none" /><path d="M 24,147.0 24,154.0 30,157.5 30,150.5 z" fill="#912c10" stroke="none" /><path d="M 30,150.5 30,157.5 36,161.0 36,154.0 z" fill="#80270f" stroke="none" /><path d="M 36,154.0 36,161.0 42,164.5 42,157.5 z" fill="#6f220c" stroke="none" /><path d="M 42,157.5 42,164.5 48,168.0 48,161.0 z" fill="#601d0b" stroke="none" /><path d="M 48,161.0 48,168.0 54,171.5 54,164.5 z" fill="#912c10" stroke="none" /><path d="M 54,164.5 54,171.5 60,175.0 60,168.0 z" fill="#80270f" stroke="none" /><path d="M 60,168.0 60,175.0 66,178.5 66,171.5 z" fill="#6f220c" stroke="none" /><path d="M 66,171.5 66,178.5 72,182.0 72,175.0 z" fill="#601d0b" stroke="none" /><path d="M 72,175.0 72,182.0 78,185.5 78,178.5 z" fill="#912c10" stroke="none" /><path d="M 78,178.5 78,185.5 84,189.0 84,182.0 z" fill="#80270f" stroke="none" /><path d="M 84,182.0 84,189.0 90,192.5 90,185.5 z" fill="#6f220c" stroke="none" /><path d="M 90,185.5 90,192.5 96,196.0 96,189.0 z" fill="#601d0b" stroke="none" /><path d="M 0,140 0,147 6,150.5 6,143.5 z" fill="#af3614" stroke="none" /><path d="M 6,143.5 6,150.5 12,154.0 12,147.0 z" fill="#9a3012" stroke="none" /><path d="M 12,147.0 12,154.0 18,157.5 18,150.5 z" fill="#862910" stroke="none" /><path d="M 18,150.5 18,157.5 24,161.0 24,154.0 z" fill="#74240d" stroke="none" /><path d="M 24,154.0 24,161.0 30,164.5 30,157.5 z" fill="#af3614" stroke="none" /><path d="M 30,157.5 30,164.5 36,168.0 36,161.0 z" fill="#9a3012" stroke="none" /><path d="M 36,161.0 36,168.0 42,171.5 42,164.5 z" fill="#862910" stroke="none" /><path d="M 42,164.5 42,171.5 48,175.0 48,168.0 z" fill="#74240d" stroke="none" /><path d="M 48,168.0 48,175.0 54,178.5 54,171.5 z" fill="#af3614" stroke="none" /><path d="M 54,171.5 54,178.5 60,182.0 60,175.0 z" fill="#9a3012" stroke="none" /><path d="M 60,175.0 60,182.0 66,185.5 66,178.5 z" fill="#862910" stroke="none" /><path d="M 66,178.5 66,185.5 72,189.0 72,182.0 z" fill="#74240d" stroke="none" /><path d="M 72,182.0 72,189.0 78,192.5 78,185.5 z" fill="#af3614" stroke="none" /><path d="M 78,185.5 78,192.5 84,196.0 84,189.0 z" fill="#9a3012" stroke="none" /><path d="M 84,189.0 84,196.0 90,199.5 90,192.5 z" fill="#862910" stroke="none" /><path d="M 90,192.5 90,199.5 96,203.0 96,196.0 z" fill="#74240d" stroke="none" /><path d="M 0,147 0,154 6,157.5 6,150.5 z" fill="#af3614" stroke="none" /><path d="M 6,150.5 6,157.5 12,161.0 12,154.0 z" fill="#9a3012" stroke="none" /><path d="M 12,154.0 12,161.0 18,164.5 18,157.5 z" fill="#862910" stroke="none" /><path d="M 18,157.5 18,164.5 24,168.0 24,161.0 z" fill="#74240d" stroke="none" /><path d="M 24,161.0 24,168.0 30,171.5 30,164.5 z" fill="#af3614" stroke="none" /><path d="M 30,164.5 30,171.5 36,175.0 36,168.0 z" fill="#9a3012" stroke="none" /><path d="M 36,168.0 36,175.0 42,178.5 42,171.5 z" fill="#862910" stroke="none" /><path d="M 42,171.5 42,178.5 48,182.0 48,175.0 z" fill="#74240d" stroke="none" /><path d="M 48,175.0 48,182.0 54,185.5 54,178.5 z" fill="#af3614" stroke="none" /><path d="M 54,178.5 54,185.5 60,189.0 60,182.0 z" fill="#9a3012" stroke="none" /><path d="M 60,182.0 60,189.0 66,192.5 66,185.5 z" fill="#862910" stroke="none" /><path d="M 66,185.5 66,192.5 72,196.0 72,189.0 z" fill="#74240d" stroke="none" /><path d="M 72,189.0 72,196.0 78,199.5 78,192.5 z" fill="#af3614" stroke="none" /><path d="M 78,192.5 78,199.5 84,203.0 84,196.0 z" fill="#9a3012" stroke="none" /><path d="M 84,196.0 84,203.0 90,206.5 90,199.5 z" fill="#862910" stroke="none" /><path d="M 90,199.5 90,206.5 96,210.0 96,203.0 z" fill="#74240d" stroke="none" /><path d="M 0,154 0,161 6,164.5 6,157.5 z" fill="#af3614" stroke="none" /><path d="M 6,157.5 6,164.5 12,168.0 12,161.0 z" fill="#9a3012" stroke="none" /><path d="M 12,161.0 12,168.0 18,171.5 18,164.5 z" fill="#862910" stroke="none" /><path d="M 18,164.5 18,171.5 24,175.0 24,168.0 z" fill="#74240d" stroke="none" /><path d="M 24,168.0 24,175.0 30,178.5 30,171.5 z" fill="#af3614" stroke="none" /><path d="M 30,171.5 30,178.5 36,182.0 36,175.0 z" fill="#9a3012" stroke="none" /><path d="M 36,175.0 36,182.0 42,185.5 42,178.5 z" fill="#862910" stroke="none" /><path d="M 42,178.5 42,185.5 48,189.0 48,182.0 z" fill="#74240d" stroke="none" /><path d="M 48,182.0 48,189.0 54,192.5 54,185.5 z" fill="#af3614" stroke="none" /><path d="M 54,185.5 54,192.5 60,196.0 60,189.0 z" fill="#9a3012" stroke="none" /><path d="M 60,189.0 60,196.0 66,199.5 66,192.5 z" fill="#862910" stroke="none" /><path d="M 66,192.5 66,199.5 72,203.0 72,196.0 z" fill="#74240d" stroke="none" /><path d="M 72,196.0 72,203.0 78,206.5 78,199.5 z" fill="#af3614" stroke="none" /><path d="M 78,199.5 78,206.5 84,210.0 84,203.0 z" fill="#9a3012" stroke="none" /><path d="M 84,203.0 84,210.0 90,213.5 90,206.5 z" fill="#862910" stroke="none" /><path d="M 90,206.5 90,213.5 96,217.0 96,210.0 z" fill="#74240d" stroke="none" /><path d="M 0,161 0,168 6,171.5 6,164.5 z" fill="#9c3012" stroke="none" /><path d="M 6,164.5 6,171.5 12,175.0 12,168.0 z" fill="#8e2c10" stroke="none" /><path d="M 12,168.0 12,175.0 18,178.5 18,171.5 z" fill="#80270f" stroke="none" /><path d="M 18,171.5 18,178.5 24,182.0 24,175.0 z" fill="#74240d" stroke="none" /><path d="M 24,175.0 24,182.0 30,185.5 30,178.5 z" fill="#9c3012" stroke="none" /><path d="M 30,178.5 30,185.5 36,189.0 36,182.0 z" fill="#8e2c10" stroke="none" /><path d="M 36,182.0 36,189.0 42,192.5 42,185.5 z" fill="#80270f" stroke="none" /><path d="M 42,185.5 42,192.5 48,196.0 48,189.0 z" fill="#74240d" stroke="none" /><path d="M 48,189.0 48,196.0 54,199.5 54,192.5 z" fill="#9c3012" stroke="none" /><path d="M 54,192.5 54,199.5 60,203.0 60,196.0 z" fill="#8e2c10" stroke="none" /><path d="M 60,196.0 60,203.0 66,206.5 66,199.5 z" fill="#80270f" stroke="none" /><path d="M 66,199.5 66,206.5 72,210.0 72,203.0 z" fill="#74240d" stroke="none" /><path d="M 72,203.0 72,210.0 78,213.5 78,206.5 z" fill="#9c3012" stroke="none" /><path d="M 78,206.5 78,213.5 84,217.0 84,210.0 z" fill="#8e2c10" stroke="none" /><path d="M 84,210.0 84,217.0 90,220.5 90,213.5 z" fill="#80270f" stroke="none" /><path d="M 90,213.5 90,220.5 96,224.0 96,217.0 z" fill="#74240d" stroke="none" /></g><g><path d="M 96,112 96,224 192,168 192,56 z" fill="#676767" stroke="none" /><path d="M 96,119 96,112 102,108.5 102,115.5 z" fill="#6d220d" stroke="none" /><path d="M 102,115.5 102,108.5 108,105.0 108,112.0 z" fill="#641f0b" stroke="none" /><path d="M 108,112.0 108,105.0 114,101.5 114,108.5 z" fill="#5b1c0a" stroke="none" /><path d="M 114,108.5 114,101.5 120,98.0 120,105.0 z" fill="#531a09" stroke="none" /><path d="M 120,105.0 120,98.0 126,94.5 126,101.5 z" fill="#6d220d" stroke="none" /><path d="M 126,101.5 126,94.5 132,91.0 132,98.0 z" fill="#641f0b" stroke="none" /><path d="M 132,98.0 132,91.0 138,87.5 138,94.5 z" fill="#5b1c0a" stroke="none" /><path d="M 138,94.5 138,87.5 144,84.0 144,91.0 z" fill="#531a09" stroke="none" /><path d="M 144,91.0 144,84.0 150,80.5 150,87.5 z" fill="#6d220d" stroke="none" /><path d="M 150,87.5 150,80.5 156,77.0 156,84.0 z" fill="#641f0b" stroke="none" /><path d="M 156,84.0 156,77.0 162,73.5 162,80.5 z" fill="#5b1c0a" stroke="none" /><path d="M 162,80.5 162,73.5 168,70.0 168,77.0 z" fill="#531a09" stroke="none" /><path d="M 168,77.0 168,70.0 174,66.5 174,73.5 z" fill="#6d220d" stroke="none" /><path d="M 174,73.5 174,66.5 180,63.0 180,70.0 z" fill="#641f0b" stroke="none" /><path d="M 180,70.0 180,63.0 186,59.5 186,66.5 z" fill="#5b1c0a" stroke="none" /><path d="M 186,66.5 186,59.5 192,56.0 192,63.0 z" fill="#531a09" stroke="none" /><path d="M 96,126 96,119 102,115.5 102,122.5 z" fill="#6d220d" stroke="none" /><path d="M 102,122.5 102,115.5 108,112.0 108,119.0 z" fill="#601e0b" stroke="none" /><path d="M 108,119.0 108,112.0 114,108.5 114,115.5 z" fill="#541a0a" stroke="none" /><path d="M 114,115.5 114,108.5 120,105.0 120,112.0 z" fill="#481608" stroke="none" /><path d="M 120,112.0 120,105.0 126,101.5 126,108.5 z" fill="#6d220d" stroke="none" /><path d="M 126,108.5 126,101.5 132,98.0 132,105.0 z" fill="#601e0b" stroke="none" /><path d="M 132,105.0 132,98.0 138,94.5 138,101.5 z" fill="#541a0a" stroke="none" /><path d="M 138,101.5 138,94.5 144,91.0 144,98.0 z" fill="#481608" stroke="none" /><path d="M 144,98.0 144,91.0 150,87.5 150,94.5 z" fill="#6d220d" stroke="none" /><path d="M 150,94.5 150,87.5 156,84.0 156,91.0 z" fill="#601e0b" stroke="none" /><path d="M 156,91.0 156,84.0 162,80.5 162,87.5 z" fill="#541a0a" stroke="none" /><path d="M 162,87.5 162,80.5 168,77.0 168,84.0 z" fill="#481608" stroke="none" /><path d="M 168,84.0 168,77.0 174,73.5 174,80.5 z" fill="#6d220d" stroke="none" /><path d="M 174,80.5 174,73.5 180,70.0 180,77.0 z" fill="#601e0b" stroke="none" /><path d="M 180,77.0 180,70.0 186,66.5 186,73.5 z" fill="#541a0a" stroke="none" /><path d="M 186,73.5 186,66.5 192,63.0 192,70.0 z" fill="#481608" stroke="none" /><path d="M 96,133 96,126 102,122.5 102,129.5 z" fill="#6d220d" stroke="none" /><path d="M 102,129.5 102,122.5 108,119.0 108,126.0 z" fill="#601e0b" stroke="none" /><path d="M 108,126.0 108,119.0 114,115.5 114,122.5 z" fill="#541a0a" stroke="none" /><path d="M 114,122.5 114,115.5 120,112.0 120,119.0 z" fill="#481608" stroke="none" /><path d="M 120,119.0 120,112.0 126,108.5 126,115.5 z" fill="#6d220d" stroke="none" /><path d="M 126,115.5 126,108.5 132,105.0 132,112.0 z" fill="#601e0b" stroke="none" /><path d="M 132,112.0 132,105.0 138,101.5 138,108.5 z" fill="#541a0a" stroke="none" /><path d="M 138,108.5 138,101.5 144,98.0 144,105.0 z" fill="#481608" stroke="none" /><path d="M 144,105.0 144,98.0 150,94.5 150,101.5 z" fill="#6d220d" stroke="none" /><path d="M 150,101.5 150,94.5 156,91.0 156,98.0 z" fill="#601e0b" stroke="none" /><path d="M 156,98.0 156,91.0 162,87.5 162,94.5 z" fill="#541a0a" stroke="none" /><path d="M 162,94.5 162,87.5 168,84.0 168,91.0 z" fill="#481608" stroke="none" /><path d="M 168,91.0 168,84.0 174,80.5 174,87.5 z" fill="#6d220d" stroke="none" /><path d="M 174,87.5 174,80.5 180,77.0 180,84.0 z" fill="#601e0b" stroke="none" /><path d="M 180,84.0 180,77.0 186,73.5 186,80.5 z" fill="#541a0a" stroke="none" /><path d="M 186,80.5 186,73.5 192,70.0 192,77.0 z" fill="#481608" stroke="none" /><path d="M 96,140 96,133 102,129.5 102,136.5 z" fill="#6d220d" stroke="none" /><path d="M 102,136.5 102,129.5 108,126.0 108,133.0 z" fill="#601e0b" stroke="none" /><path d="M 108,133.0 108,126.0 114,122.5 114,129.5 z" fill="#541a0a" stroke="none" /><path d="M 114,129.5 114,122.5 120,119.0 120,126.0 z" fill="#481608" stroke="none" /><path d="M 120,126.0 120,119.0 126,115.5 126,122.5 z" fill="#6d220d" stroke="none" /><path d="M 126,122.5 126,115.5 132,112.0 132,119.0 z" fill="#601e0b" stroke="none" /><path d="M 132,119.0 132,112.0 138,108.5 138,115.5 z" fill="#541a0a" stroke="none" /><path d="M 138,115.5 138,108.5 144,105.0 144,112.0 z" fill="#481608" stroke="none" /><path d="M 144,112.0 144,105.0 150,101.5 150,108.5 z" fill="#6d220d" stroke="none" /><path d="M 150,108.5 150,101.5 156,98.0 156,105.0 z" fill="#601e0b" stroke="none" /><path d="M 156,105.0 156,98.0 162,94.5 162,101.5 z" fill="#541a0a" stroke="none" /><path d="M 162,101.5 162,94.5 168,91.0 168,98.0 z" fill="#481608" stroke="none" /><path d="M 168,98.0 168,91.0 174,87.5 174,94.5 z" fill="#6d220d" stroke="none" /><path d="M 174,94.5 174,87.5 180,84.0 180,91.0 z" fill="#601e0b" stroke="none" /><path d="M 180,91.0 180,84.0 186,80.5 186,87.5 z" fill="#541a0a" stroke="none" /><path d="M 186,87.5 186,80.5 192,77.0 192,84.0 z" fill="#481608" stroke="none" /><path d="M 96,147 96,140 102,136.5 102,143.5 z" fill="#6d220d" stroke="none" /><path d="M 102,143.5 102,136.5 108,133.0 108,140.0 z" fill="#601e0b" stroke="none" /><path d="M 108,140.0 108,133.0 114,129.5 114,136.5 z" fill="#541a0a" stroke="none" /><path d="M 114,136.5 114,129.5 120,126.0 120,133.0 z" fill="#481608" stroke="none" /><path d="M 120,133.0 120,126.0 126,122.5 126,129.5 z" fill="#6d220d" stroke="none" /><path d="M 126,129.5 126,122.5 132,119.0 132,126.0 z" fill="#601e0b" stroke="none" /><path d="M 132,126.0 132,119.0 138,115.5 138,122.5 z" fill="#541a0a" stroke="none" /><path d="M 138,122.5 138,115.5 144,112.0 144,119.0 z" fill="#481608" stroke="none" /><path d="M 144,119.0 144,112.0 150,108.5 150,115.5 z" fill="#6d220d" stroke="none" /><path d="M 150,115.5 150,108.5 156,105.0 156,112.0 z" fill="#601e0b" stroke="none" /><path d="M 156,112.0 156,105.0 162,101.5 162,108.5 z" fill="#541a0a" stroke="none" /><path d="M 162,108.5 162,101.5 168,98.0 168,105.0 z" fill="#481608" stroke="none" /><path d="M 168,105.0 168,98.0 174,94.5 174,101.5 z" fill="#6d220d" stroke="none" /><path d="M 174,101.5 174,94.5 180,91.0 180,98.0 z" fill="#601e0b" stroke="none" /><path d="M 180,98.0 180,91.0 186,87.5 186,94.5 z" fill="#541a0a" stroke="none" /><path d="M 186,94.5 186,87.5 192,84.0 192,91.0 z" fill="#481608" stroke="none" /><path d="M 96,154 96,147 102,143.5 102,150.5 z" fill="#6d6d6d" stroke="none" /><path d="M 102,150.5 102,143.5 108,140.0 108,147.0 z" fill="#6d6d6d" stroke="none" /><path d="M 108,147.0 108,140.0 114,136.5 114,143.5 z" fill="#6d6d6d" stroke="none" /><path d="M 120,140.0 120,133.0 126,129.5 126,136.5 z" fill="#6d6d6d" stroke="none" /><path d="M 126,136.5 126,129.5 132,126.0 132,133.0 z" fill="#6d6d6d" stroke="none" /><path d="M 132,133.0 132,126.0 138,122.5 138,129.5 z" fill="#6d6d6d" stroke="none" /><path d="M 138,129.5 138,122.5 144,119.0 144,126.0 z" fill="#6d6d6d" stroke="none" /><path d="M 150,122.5 150,115.5 156,112.0 156,119.0 z" fill="#6d6d6d" stroke="none" /><path d="M 156,119.0 156,112.0 162,108.5 162,115.5 z" fill="#6d6d6d" stroke="none" /><path d="M 174,108.5 174,101.5 180,98.0 180,105.0 z" fill="#6d6d6d" stroke="none" /><path d="M 180,105.0 180,98.0 186,94.5 186,101.5 z" fill="#6d6d6d" stroke="none" /><path d="M 102,157.5 102,150.5 108,147.0 108,154.0 z" fill="#6d6d6d" stroke="none" /><path d="M 108,154.0 108,147.0 114,143.5 114,150.5 z" fill="#000000" stroke="none" /><path d="M 114,150.5 114,143.5 120,140.0 120,147.0 z" fill="#000000" stroke="none" /><path d="M 120,147.0 120,140.0 126,136.5 126,143.5 z" fill="#000000" stroke="none" /><path d="M 132,140.0 132,133.0 138,129.5 138,136.5 z" fill="#000000" stroke="none" /><path d="M 144,133.0 144,126.0 150,122.5 150,129.5 z" fill="#6d6d6d" stroke="none" /><path d="M 150,129.5 150,122.5 156,119.0 156,126.0 z" fill="#000000" stroke="none" /><path d="M 162,122.5 162,115.5 168,112.0 168,119.0 z" fill="#000000" stroke="none" /><path d="M 168,119.0 168,112.0 174,108.5 174,115.5 z" fill="#000000" stroke="none" /><path d="M 174,115.5 174,108.5 180,105.0 180,112.0 z" fill="#000000" stroke="none" /><path d="M 180,112.0 180,105.0 186,101.5 186,108.5 z" fill="#6d6d6d" stroke="none" /><path d="M 114,157.5 114,150.5 120,147.0 120,154.0 z" fill="#000000" stroke="none" /><path d="M 132,147.0 132,140.0 138,136.5 138,143.5 z" fill="#000000" stroke="none" /><path d="M 138,143.5 138,136.5 144,133.0 144,140.0 z" fill="#000000" stroke="none" /><path d="M 150,136.5 150,129.5 156,126.0 156,133.0 z" fill="#000000" stroke="none" /><path d="M 168,126.0 168,119.0 174,115.5 174,122.5 z" fill="#000000" stroke="none" /><path d="M 114,164.5 114,157.5 120,154.0 120,161.0 z" fill="#000000" stroke="none" /><path d="M 132,154.0 132,147.0 138,143.5 138,150.5 z" fill="#000000" stroke="none" /><path d="M 144,147.0 144,140.0 150,136.5 150,143.5 z" fill="#000000" stroke="none" /><path d="M 150,143.5 150,136.5 156,133.0 156,140.0 z" fill="#000000" stroke="none" /><path d="M 168,133.0 168,126.0 174,122.5 174,129.5 z" fill="#000000" stroke="none" /><path d="M 102,178.5 102,171.5 108,168.0 108,175.0 z" fill="#575757" stroke="none" /><path d="M 108,175.0 108,168.0 114,164.5 114,171.5 z" fill="#575757" stroke="none" /><path d="M 114,171.5 114,164.5 120,161.0 120,168.0 z" fill="#000000" stroke="none" /><path d="M 126,164.5 126,157.5 132,154.0 132,161.0 z" fill="#575757" stroke="none" /><path d="M 132,161.0 132,154.0 138,150.5 138,157.5 z" fill="#000000" stroke="none" /><path d="M 150,150.5 150,143.5 156,140.0 156,147.0 z" fill="#000000" stroke="none" /><path d="M 168,140.0 168,133.0 174,129.5 174,136.5 z" fill="#000000" stroke="none" /><path d="M 174,136.5 174,129.5 180,126.0 180,133.0 z" fill="#575757" stroke="none" /><path d="M 180,133.0 180,126.0 186,122.5 186,129.5 z" fill="#575757" stroke="none" /><path d="M 96,189 96,182 102,178.5 102,185.5 z" fill="#575757" stroke="none" /><path d="M 102,185.5 102,178.5 108,175.0 108,182.0 z" fill="#575757" stroke="none" /><path d="M 114,178.5 114,171.5 120,168.0 120,175.0 z" fill="#575757" stroke="none" /><path d="M 120,175.0 120,168.0 126,164.5 126,171.5 z" fill="#575757" stroke="none" /><path d="M 132,168.0 132,161.0 138,157.5 138,164.5 z" fill="#575757" stroke="none" /><path d="M 138,164.5 138,157.5 144,154.0 144,161.0 z" fill="#575757" stroke="none" /><path d="M 144,161.0 144,154.0 150,150.5 150,157.5 z" fill="#575757" stroke="none" /><path d="M 156,154.0 156,147.0 162,143.5 162,150.5 z" fill="#575757" stroke="none" /><path d="M 162,150.5 162,143.5 168,140.0 168,147.0 z" fill="#575757" stroke="none" /><path d="M 174,143.5 174,136.5 180,133.0 180,140.0 z" fill="#575757" stroke="none" /><path d="M 180,140.0 180,133.0 186,129.5 186,136.5 z" fill="#575757" stroke="none" /><path d="M 186,136.5 186,129.5 192,126.0 192,133.0 z" fill="#575757" stroke="none" /><path d="M 96,196 96,189 102,185.5 102,192.5 z" fill="#5b1c0a" stroke="none" /><path d="M 102,192.5 102,185.5 108,182.0 108,189.0 z" fill="#501809" stroke="none" /><path d="M 108,189.0 108,182.0 114,178.5 114,185.5 z" fill="#451508" stroke="none" /><path d="M 114,185.5 114,178.5 120,175.0 120,182.0 z" fill="#3c1207" stroke="none" /><path d="M 120,182.0 120,175.0 126,171.5 126,178.5 z" fill="#5b1c0a" stroke="none" /><path d="M 126,178.5 126,171.5 132,168.0 132,175.0 z" fill="#501809" stroke="none" /><path d="M 132,175.0 132,168.0 138,164.5 138,171.5 z" fill="#451508" stroke="none" /><path d="M 138,171.5 138,164.5 144,161.0 144,168.0 z" fill="#3c1207" stroke="none" /><path d="M 144,168.0 144,161.0 150,157.5 150,164.5 z" fill="#5b1c0a" stroke="none" /><path d="M 150,164.5 150,157.5 156,154.0 156,161.0 z" fill="#501809" stroke="none" /><path d="M 156,161.0 156,154.0 162,150.5 162,157.5 z" fill="#451508" stroke="none" /><path d="M 162,157.5 162,150.5 168,147.0 168,154.0 z" fill="#3c1207" stroke="none" /><path d="M 168,154.0 168,147.0 174,143.5 174,150.5 z" fill="#5b1c0a" stroke="none" /><path d="M 174,150.5 174,143.5 180,140.0 180,147.0 z" fill="#501809" stroke="none" /><path d="M 180,147.0 180,140.0 186,136.5 186,143.5 z" fill="#451508" stroke="none" /><path d="M 186,143.5 186,136.5 192,133.0 192,140.0 z" fill="#3c1207" stroke="none" /><path d="M 96,203 96,196 102,192.5 102,199.5 z" fill="#6d220d" stroke="none" /><path d="M 102,199.5 102,192.5 108,189.0 108,196.0 z" fill="#601e0b" stroke="none" /><path d="M 108,196.0 108,189.0 114,185.5 114,192.5 z" fill="#541a0a" stroke="none" /><path d="M 114,192.5 114,185.5 120,182.0 120,189.0 z" fill="#481608" stroke="none" /><path d="M 120,189.0 120,182.0 126,178.5 126,185.5 z" fill="#6d220d" stroke="none" /><path d="M 126,185.5 126,178.5 132,175.0 132,182.0 z" fill="#601e0b" stroke="none" /><path d="M 132,182.0 132,175.0 138,171.5 138,178.5 z" fill="#541a0a" stroke="none" /><path d="M 138,178.5 138,171.5 144,168.0 144,175.0 z" fill="#481608" stroke="none" /><path d="M 144,175.0 144,168.0 150,164.5 150,171.5 z" fill="#6d220d" stroke="none" /><path d="M 150,171.5 150,164.5 156,161.0 156,168.0 z" fill="#601e0b" stroke="none" /><path d="M 156,168.0 156,161.0 162,157.5 162,164.5 z" fill="#541a0a" stroke="none" /><path d="M 162,164.5 162,157.5 168,154.0 168,161.0 z" fill="#481608" stroke="none" /><path d="M 168,161.0 168,154.0 174,150.5 174,157.5 z" fill="#6d220d" stroke="none" /><path d="M 174,157.5 174,150.5 180,147.0 180,154.0 z" fill="#601e0b" stroke="none" /><path d="M 180,154.0 180,147.0 186,143.5 186,150.5 z" fill="#541a0a" stroke="none" /><path d="M 186,150.5 186,143.5 192,140.0 192,147.0 z" fill="#481608" stroke="none" /><path d="M 96,210 96,203 102,199.5 102,206.5 z" fill="#6d220d" stroke="none" /><path d="M 102,206.5 102,199.5 108,196.0 108,203.0 z" fill="#601e0b" stroke="none" /><path d="M 108,203.0 108,196.0 114,192.5 114,199.5 z" fill="#541a0a" stroke="none" /><path d="M 114,199.5 114,192.5 120,189.0 120,196.0 z" fill="#481608" stroke="none" /><path d="M 120,196.0 120,189.0 126,185.5 126,192.5 z" fill="#6d220d" stroke="none" /><path d="M 126,192.5 126,185.5 132,182.0 132,189.0 z" fill="#601e0b" stroke="none" /><path d="M 132,189.0 132,182.0 138,178.5 138,185.5 z" fill="#541a0a" stroke="none" /><path d="M 138,185.5 138,178.5 144,175.0 144,182.0 z" fill="#481608" stroke="none" /><path d="M 144,182.0 144,175.0 150,171.5 150,178.5 z" fill="#6d220d" stroke="none" /><path d="M 150,178.5 150,171.5 156,168.0 156,175.0 z" fill="#601e0b" stroke="none" /><path d="M 156,175.0 156,168.0 162,164.5 162,171.5 z" fill="#541a0a" stroke="none" /><path d="M 162,171.5 162,164.5 168,161.0 168,168.0 z" fill="#481608" stroke="none" /><path d="M 168,168.0 168,161.0 174,157.5 174,164.5 z" fill="#6d220d" stroke="none" /><path d="M 174,164.5 174,157.5 180,154.0 180,161.0 z" fill="#601e0b" stroke="none" /><path d="M 180,161.0 180,154.0 186,150.5 186,157.5 z" fill="#541a0a" stroke="none" /><path d="M 186,157.5 186,150.5 192,147.0 192,154.0 z" fill="#481608" stroke="none" /><path d="M 96,217 96,210 102,206.5 102,213.5 z" fill="#6d220d" stroke="none" /><path d="M 102,213.5 102,206.5 108,203.0 108,210.0 z" fill="#601e0b" stroke="none" /><path d="M 108,210.0 108,203.0 114,199.5 114,206.5 z" fill="#541a0a" stroke="none" /><path d="M 114,206.5 114,199.5 120,196.0 120,203.0 z" fill="#481608" stroke="none" /><path d="M 120,203.0 120,196.0 126,192.5 126,199.5 z" fill="#6d220d" stroke="none" /><path d="M 126,199.5 126,192.5 132,189.0 132,196.0 z" fill="#601e0b" stroke="none" /><path d="M 132,196.0 132,189.0 138,185.5 138,192.5 z" fill="#541a0a" stroke="none" /><path d="M 138,192.5 138,185.5 144,182.0 144,189.0 z" fill="#481608" stroke="none" /><path d="M 144,189.0 144,182.0 150,178.5 150,185.5 z" fill="#6d220d" stroke="none" /><path d="M 150,185.5 150,178.5 156,175.0 156,182.0 z" fill="#601e0b" stroke="none" /><path d="M 156,182.0 156,175.0 162,171.5 162,178.5 z" fill="#541a0a" stroke="none" /><path d="M 162,178.5 162,171.5 168,168.0 168,175.0 z" fill="#481608" stroke="none" /><path d="M 168,175.0 168,168.0 174,164.5 174,171.5 z" fill="#6d220d" stroke="none" /><path d="M 174,171.5 174,164.5 180,161.0 180,168.0 z" fill="#601e0b" stroke="none" /><path d="M 180,168.0 180,161.0 186,157.5 186,164.5 z" fill="#541a0a" stroke="none" /><path d="M 186,164.5 186,157.5 192,154.0 192,161.0 z" fill="#481608" stroke="none" /><path d="M 96,224 96,217 102,213.5 102,220.5 z" fill="#621e0b" stroke="none" /><path d="M 102,220.5 102,213.5 108,210.0 108,217.0 z" fill="#591b0a" stroke="none" /><path d="M 108,217.0 108,210.0 114,206.5 114,213.5 z" fill="#501809" stroke="none" /><path d="M 114,213.5 114,206.5 120,203.0 120,210.0 z" fill="#481608" stroke="none" /><path d="M 120,210.0 120,203.0 126,199.5 126,206.5 z" fill="#621e0b" stroke="none" /><path d="M 126,206.5 126,199.5 132,196.0 132,203.0 z" fill="#591b0a" stroke="none" /><path d="M 132,203.0 132,196.0 138,192.5 138,199.5 z" fill="#501809" stroke="none" /><path d="M 138,199.5 138,192.5 144,189.0 144,196.0 z" fill="#481608" stroke="none" /><path d="M 144,196.0 144,189.0 150,185.5 150,192.5 z" fill="#621e0b" stroke="none" /><path d="M 150,192.5 150,185.5 156,182.0 156,189.0 z" fill="#591b0a" stroke="none" /><path d="M 156,189.0 156,182.0 162,178.5 162,185.5 z" fill="#501809" stroke="none" /><path d="M 162,185.5 162,178.5 168,175.0 168,182.0 z" fill="#481608" stroke="none" /><path d="M 168,182.0 168,175.0 174,171.5 174,178.5 z" fill="#621e0b" stroke="none" /><path d="M 174,178.5 174,171.5 180,168.0 180,175.0 z" fill="#591b0a" stroke="none" /><path d="M 180,175.0 180,168.0 186,164.5 186,171.5 z" fill="#501809" stroke="none" /><path d="M 186,171.5 186,164.5 192,161.0 192,168.0 z" fill="#481608" stroke="none" /></g><g><path d="M 0,56 96,112 192,56 96,0 z" fill="#912d11" stroke="none" /><path d="M 90,3.5 96,0.0 102,3.5 96,7.0 z" fill="#db441a" stroke="none" /><path d="M 96,7.0 102,3.5 108,7.0 102,10.5 z" fill="#db441a" stroke="none" /><path d="M 102,10.5 108,7.0 114,10.5 108,14.0 z" fill="#db441a" stroke="none" /><path d="M 108,14.0 114,10.5 120,14.0 114,17.5 z" fill="#a83414" stroke="none" /><path d="M 114,17.5 120,14.0 126,17.5 120,21.0 z" fill="#db441a" stroke="none" /><path d="M 120,21.0 126,17.5 132,21.0 126,24.5 z" fill="#db441a" stroke="none" /><path d="M 126,24.5 132,21.0 138,24.5 132,28.0 z" fill="#db441a" stroke="none" /><path d="M 132,28.0 138,24.5 144,28.0 138,31.5 z" fill="#a83414" stroke="none" /><path d="M 138,31.5 144,28.0 150,31.5 144,35.0 z" fill="#db441a" stroke="none" /><path d="M 144,35.0 150,31.5 156,35.0 150,38.5 z" fill="#db441a" stroke="none" /><path d="M 150,38.5 156,35.0 162,38.5 156,42.0 z" fill="#db441a" stroke="none" /><path d="M 156,42.0 162,38.5 168,42.0 162,45.5 z" fill="#a83414" stroke="none" /><path d="M 162,45.5 168,42.0 174,45.5 168,49.0 z" fill="#db441a" stroke="none" /><path d="M 168,49.0 174,45.5 180,49.0 174,52.5 z" fill="#db441a" stroke="none" /><path d="M 174,52.5 180,49.0 186,52.5 180,56.0 z" fill="#db441a" stroke="none" /><path d="M 180,56.0 186,52.5 192,56.0 186,59.5 z" fill="#a83414" stroke="none" /><path d="M 84,7.0 90,3.5 96,7.0 90,10.5 z" fill="#db441a" stroke="none" /><path d="M 90,10.5 96,7.0 102,10.5 96,14.0 z" fill="#8e8e8e" stroke="none" /><path d="M 96,14.0 102,10.5 108,14.0 102,17.5 z" fill="#8e8e8e" stroke="none" /><path d="M 108,21.0 114,17.5 120,21.0 114,24.5 z" fill="#db441a" stroke="none" /><path d="M 114,24.5 120,21.0 126,24.5 120,28.0 z" fill="#8e8e8e" stroke="none" /><path d="M 120,28.0 126,24.5 132,28.0 126,31.5 z" fill="#8e8e8e" stroke="none" /><path d="M 132,35.0 138,31.5 144,35.0 138,38.5 z" fill="#db441a" stroke="none" /><path d="M 138,38.5 144,35.0 150,38.5 144,42.0 z" fill="#8e8e8e" stroke="none" /><path d="M 144,42.0 150,38.5 156,42.0 150,45.5 z" fill="#8e8e8e" stroke="none" /><path d="M 156,49.0 162,45.5 168,49.0 162,52.5 z" fill="#db441a" stroke="none" /><path d="M 162,52.5 168,49.0 174,52.5 168,56.0 z" fill="#8e8e8e" stroke="none" /><path d="M 168,56.0 174,52.5 180,56.0 174,59.5 z" fill="#8e8e8e" stroke="none" /><path d="M 78,10.5 84,7.0 90,10.5 84,14.0 z" fill="#db441a" stroke="none" /><path d="M 84,14.0 90,10.5 96,14.0 90,17.5 z" fill="#8e8e8e" stroke="none" /><path d="M 90,17.5 96,14.0 102,17.5 96,21.0 z" fill="#565656" stroke="none" /><path d="M 102,24.5 108,21.0 114,24.5 108,28.0 z" fill="#db441a" stroke="none" /><path d="M 108,28.0 114,24.5 120,28.0 114,31.5 z" fill="#8e8e8e" stroke="none" /><path d="M 114,31.5 120,28.0 126,31.5 120,35.0 z" fill="#565656" stroke="none" /><path d="M 120,35.0 126,31.5 132,35.0 126,38.5 z" fill="#000000" stroke="none" /><path d="M 126,38.5 132,35.0 138,38.5 132,42.0 z" fill="#000000" stroke="none" /><path d="M 132,42.0 138,38.5 144,42.0 138,45.5 z" fill="#565656" stroke="none" /><path d="M 138,45.5 144,42.0 150,45.5 144,49.0 z" fill="#8e8e8e" stroke="none" /><path d="M 150,52.5 156,49.0 162,52.5 156,56.0 z" fill="#db441a" stroke="none" /><path d="M 156,56.0 162,52.5 168,56.0 162,59.5 z" fill="#565656" stroke="none" /><path d="M 162,59.5 168,56.0 174,59.5 168,63.0 z" fill="#8e8e8e" stroke="none" /><path d="M 72,14.0 78,10.5 84,14.0 78,17.5 z" fill="#a83414" stroke="none" /><path d="M 90,24.5 96,21.0 102,24.5 96,28.0 z" fill="#565656" stroke="none" /><path d="M 96,28.0 102,24.5 108,28.0 102,31.5 z" fill="#a83414" stroke="none" /><path d="M 108,35.0 114,31.5 120,35.0 114,38.5 z" fill="#565656" stroke="none" /><path d="M 120,42.0 126,38.5 132,42.0 126,45.5 z" fill="#565656" stroke="none" /><path d="M 126,45.5 132,42.0 138,45.5 132,49.0 z" fill="#000000" stroke="none" /><path d="M 144,56.0 150,52.5 156,56.0 150,59.5 z" fill="#565656" stroke="none" /><path d="M 66,17.5 72,14.0 78,17.5 72,21.0 z" fill="#db441a" stroke="none" /><path d="M 72,21.0 78,17.5 84,21.0 78,24.5 z" fill="#db441a" stroke="none" /><path d="M 78,24.5 84,21.0 90,24.5 84,28.0 z" fill="#db441a" stroke="none" /><path d="M 84,28.0 90,24.5 96,28.0 90,31.5 z" fill="#a83414" stroke="none" /><path d="M 90,31.5 96,28.0 102,31.5 96,35.0 z" fill="#565656" stroke="none" /><path d="M 96,35.0 102,31.5 108,35.0 102,38.5 z" fill="#db441a" stroke="none" /><path d="M 102,38.5 108,35.0 114,38.5 108,42.0 z" fill="#565656" stroke="none" /><path d="M 108,42.0 114,38.5 120,42.0 114,45.5 z" fill="#a83414" stroke="none" /><path d="M 114,45.5 120,42.0 126,45.5 120,49.0 z" fill="#565656" stroke="none" /><path d="M 120,49.0 126,45.5 132,49.0 126,52.5 z" fill="#db441a" stroke="none" /><path d="M 126,52.5 132,49.0 138,52.5 132,56.0 z" fill="#000000" stroke="none" /><path d="M 132,56.0 138,52.5 144,56.0 138,59.5 z" fill="#000000" stroke="none" /><path d="M 138,59.5 144,56.0 150,59.5 144,63.0 z" fill="#565656" stroke="none" /><path d="M 144,63.0 150,59.5 156,63.0 150,66.5 z" fill="#db441a" stroke="none" /><path d="M 150,66.5 156,63.0 162,66.5 156,70.0 z" fill="#db441a" stroke="none" /><path d="M 156,70.0 162,66.5 168,70.0 162,73.5 z" fill="#a83414" stroke="none" /><path d="M 60,21.0 66,17.5 72,21.0 66,24.5 z" fill="#db441a" stroke="none" /><path d="M 66,24.5 72,21.0 78,24.5 72,28.0 z" fill="#8e8e8e" stroke="none" /><path d="M 72,28.0 78,24.5 84,28.0 78,31.5 z" fill="#8e8e8e" stroke="none" /><path d="M 84,35.0 90,31.5 96,35.0 90,38.5 z" fill="#db441a" stroke="none" /><path d="M 90,38.5 96,35.0 102,38.5 96,42.0 z" fill="#000000" stroke="none" /><path d="M 96,42.0 102,38.5 108,42.0 102,45.5 z" fill="#000000" stroke="none" /><path d="M 108,49.0 114,45.5 120,49.0 114,52.5 z" fill="#565656" stroke="none" /><path d="M 114,52.5 120,49.0 126,52.5 120,56.0 z" fill="#8e8e8e" stroke="none" /><path d="M 120,56.0 126,52.5 132,56.0 126,59.5 z" fill="#565656" stroke="none" /><path d="M 126,59.5 132,56.0 138,59.5 132,63.0 z" fill="#565656" stroke="none" /><path d="M 132,63.0 138,59.5 144,63.0 138,66.5 z" fill="#000000" stroke="none" /><path d="M 138,66.5 144,63.0 150,66.5 144,70.0 z" fill="#8e8e8e" stroke="none" /><path d="M 144,70.0 150,66.5 156,70.0 150,73.5 z" fill="#8e8e8e" stroke="none" /><path d="M 54,24.5 60,21.0 66,24.5 60,28.0 z" fill="#db441a" stroke="none" /><path d="M 60,28.0 66,24.5 72,28.0 66,31.5 z" fill="#8e8e8e" stroke="none" /><path d="M 66,31.5 72,28.0 78,31.5 72,35.0 z" fill="#565656" stroke="none" /><path d="M 72,35.0 78,31.5 84,35.0 78,38.5 z" fill="#565656" stroke="none" /><path d="M 78,38.5 84,35.0 90,38.5 84,42.0 z" fill="#db441a" stroke="none" /><path d="M 84,42.0 90,38.5 96,42.0 90,45.5 z" fill="#8e8e8e" stroke="none" /><path d="M 90,45.5 96,42.0 102,45.5 96,49.0 z" fill="#000000" stroke="none" /><path d="M 96,49.0 102,45.5 108,49.0 102,52.5 z" fill="#565656" stroke="none" /><path d="M 102,52.5 108,49.0 114,52.5 108,56.0 z" fill="#000000" stroke="none" /><path d="M 108,56.0 114,52.5 120,56.0 114,59.5 z" fill="#565656" stroke="none" /><path d="M 114,59.5 120,56.0 126,59.5 120,63.0 z" fill="#000000" stroke="none" /><path d="M 120,63.0 126,59.5 132,63.0 126,66.5 z" fill="#565656" stroke="none" /><path d="M 126,66.5 132,63.0 138,66.5 132,70.0 z" fill="#565656" stroke="none" /><path d="M 132,70.0 138,66.5 144,70.0 138,73.5 z" fill="#000000" stroke="none" /><path d="M 138,73.5 144,70.0 150,73.5 144,77.0 z" fill="#8e8e8e" stroke="none" /><path d="M 48,28.0 54,24.5 60,28.0 54,31.5 z" fill="#a83414" stroke="none" /><path d="M 72,42.0 78,38.5 84,42.0 78,45.5 z" fill="#565656" stroke="none" /><path d="M 78,45.5 84,42.0 90,45.5 84,49.0 z" fill="#000000" stroke="none" /><path d="M 84,49.0 90,45.5 96,49.0 90,52.5 z" fill="#000000" stroke="none" /><path d="M 90,52.5 96,49.0 102,52.5 96,56.0 z" fill="#000000" stroke="none" /><path d="M 96,56.0 102,52.5 108,56.0 102,59.5 z" fill="#000000" stroke="none" /><path d="M 102,59.5 108,56.0 114,59.5 108,63.0 z" fill="#000000" stroke="none" /><path d="M 108,63.0 114,59.5 120,63.0 114,66.5 z" fill="#565656" stroke="none" /><path d="M 120,70.0 126,66.5 132,70.0 126,73.5 z" fill="#a83414" stroke="none" /><path d="M 126,73.5 132,70.0 138,73.5 132,77.0 z" fill="#000000" stroke="none" /><path d="M 42,31.5 48,28.0 54,31.5 48,35.0 z" fill="#db441a" stroke="none" /><path d="M 48,35.0 54,31.5 60,35.0 54,38.5 z" fill="#db441a" stroke="none" /><path d="M 54,38.5 60,35.0 66,38.5 60,42.0 z" fill="#db441a" stroke="none" /><path d="M 60,42.0 66,38.5 72,42.0 66,45.5 z" fill="#a83414" stroke="none" /><path d="M 66,45.5 72,42.0 78,45.5 72,49.0 z" fill="#db441a" stroke="none" /><path d="M 72,49.0 78,45.5 84,49.0 78,52.5 z" fill="#db441a" stroke="none" /><path d="M 78,52.5 84,49.0 90,52.5 84,56.0 z" fill="#000000" stroke="none" /><path d="M 84,56.0 90,52.5 96,56.0 90,59.5 z" fill="#000000" stroke="none" /><path d="M 90,59.5 96,56.0 102,59.5 96,63.0 z" fill="#000000" stroke="none" /><path d="M 96,63.0 102,59.5 108,63.0 102,66.5 z" fill="#565656" stroke="none" /><path d="M 102,66.5 108,63.0 114,66.5 108,70.0 z" fill="#db441a" stroke="none" /><path d="M 108,70.0 114,66.5 120,70.0 114,73.5 z" fill="#565656" stroke="none" /><path d="M 114,73.5 120,70.0 126,73.5 120,77.0 z" fill="#565656" stroke="none" /><path d="M 120,77.0 126,73.5 132,77.0 126,80.5 z" fill="#000000" stroke="none" /><path d="M 126,80.5 132,77.0 138,80.5 132,84.0 z" fill="#db441a" stroke="none" /><path d="M 132,84.0 138,80.5 144,84.0 138,87.5 z" fill="#a83414" stroke="none" /><path d="M 36,35.0 42,31.5 48,35.0 42,38.5 z" fill="#db441a" stroke="none" /><path d="M 42,38.5 48,35.0 54,38.5 48,42.0 z" fill="#8e8e8e" stroke="none" /><path d="M 48,42.0 54,38.5 60,42.0 54,45.5 z" fill="#565656" stroke="none" /><path d="M 54,45.5 60,42.0 66,45.5 60,49.0 z" fill="#565656" stroke="none" /><path d="M 60,49.0 66,45.5 72,49.0 66,52.5 z" fill="#000000" stroke="none" /><path d="M 66,52.5 72,49.0 78,52.5 72,56.0 z" fill="#000000" stroke="none" /><path d="M 72,56.0 78,52.5 84,56.0 78,59.5 z" fill="#000000" stroke="none" /><path d="M 78,59.5 84,56.0 90,59.5 84,63.0 z" fill="#000000" stroke="none" /><path d="M 84,63.0 90,59.5 96,63.0 90,66.5 z" fill="#000000" stroke="none" /><path d="M 90,66.5 96,63.0 102,66.5 96,70.0 z" fill="#000000" stroke="none" /><path d="M 96,70.0 102,66.5 108,70.0 102,73.5 z" fill="#8e8e8e" stroke="none" /><path d="M 108,77.0 114,73.5 120,77.0 114,80.5 z" fill="#000000" stroke="none" /><path d="M 114,80.5 120,77.0 126,80.5 120,84.0 z" fill="#565656" stroke="none" /><path d="M 120,84.0 126,80.5 132,84.0 126,87.5 z" fill="#8e8e8e" stroke="none" /><path d="M 30,38.5 36,35.0 42,38.5 36,42.0 z" fill="#db441a" stroke="none" /><path d="M 36,42.0 42,38.5 48,42.0 42,45.5 z" fill="#8e8e8e" stroke="none" /><path d="M 42,45.5 48,42.0 54,45.5 48,49.0 z" fill="#8e8e8e" stroke="none" /><path d="M 54,52.5 60,49.0 66,52.5 60,56.0 z" fill="#db441a" stroke="none" /><path d="M 60,56.0 66,52.5 72,56.0 66,59.5 z" fill="#000000" stroke="none" /><path d="M 66,59.5 72,56.0 78,59.5 72,63.0 z" fill="#000000" stroke="none" /><path d="M 72,63.0 78,59.5 84,63.0 78,66.5 z" fill="#000000" stroke="none" /><path d="M 78,66.5 84,63.0 90,66.5 84,70.0 z" fill="#000000" stroke="none" /><path d="M 84,70.0 90,66.5 96,70.0 90,73.5 z" fill="#8e8e8e" stroke="none" /><path d="M 90,73.5 96,70.0 102,73.5 96,77.0 z" fill="#565656" stroke="none" /><path d="M 102,80.5 108,77.0 114,80.5 108,84.0 z" fill="#000000" stroke="none" /><path d="M 108,84.0 114,80.5 120,84.0 114,87.5 z" fill="#8e8e8e" stroke="none" /><path d="M 114,87.5 120,84.0 126,87.5 120,91.0 z" fill="#8e8e8e" stroke="none" /><path d="M 24,42.0 30,38.5 36,42.0 30,45.5 z" fill="#a83414" stroke="none" /><path d="M 48,56.0 54,52.5 60,56.0 54,59.5 z" fill="#000000" stroke="none" /><path d="M 60,63.0 66,59.5 72,63.0 66,66.5 z" fill="#000000" stroke="none" /><path d="M 72,70.0 78,66.5 84,70.0 78,73.5 z" fill="#000000" stroke="none" /><path d="M 78,73.5 84,70.0 90,73.5 84,77.0 z" fill="#565656" stroke="none" /><path d="M 90,80.5 96,77.0 102,80.5 96,84.0 z" fill="#000000" stroke="none" /><path d="M 96,84.0 102,80.5 108,84.0 102,87.5 z" fill="#565656" stroke="none" /><path d="M 18,45.5 24,42.0 30,45.5 24,49.0 z" fill="#db441a" stroke="none" /><path d="M 24,49.0 30,45.5 36,49.0 30,52.5 z" fill="#db441a" stroke="none" /><path d="M 30,52.5 36,49.0 42,52.5 36,56.0 z" fill="#db441a" stroke="none" /><path d="M 36,56.0 42,52.5 48,56.0 42,59.5 z" fill="#565656" stroke="none" /><path d="M 42,59.5 48,56.0 54,59.5 48,63.0 z" fill="#db441a" stroke="none" /><path d="M 48,63.0 54,59.5 60,63.0 54,66.5 z" fill="#db441a" stroke="none" /><path d="M 54,66.5 60,63.0 66,66.5 60,70.0 z" fill="#565656" stroke="none" /><path d="M 60,70.0 66,66.5 72,70.0 66,73.5 z" fill="#a83414" stroke="none" /><path d="M 66,73.5 72,70.0 78,73.5 72,77.0 z" fill="#565656" stroke="none" /><path d="M 72,77.0 78,73.5 84,77.0 78,80.5 z" fill="#000000" stroke="none" /><path d="M 78,80.5 84,77.0 90,80.5 84,84.0 z" fill="#000000" stroke="none" /><path d="M 84,84.0 90,80.5 96,84.0 90,87.5 z" fill="#565656" stroke="none" /><path d="M 90,87.5 96,84.0 102,87.5 96,91.0 z" fill="#565656" stroke="none" /><path d="M 96,91.0 102,87.5 108,91.0 102,94.5 z" fill="#db441a" stroke="none" /><path d="M 102,94.5 108,91.0 114,94.5 108,98.0 z" fill="#db441a" stroke="none" /><path d="M 108,98.0 114,94.5 120,98.0 114,101.5 z" fill="#a83414" stroke="none" /><path d="M 12,49.0 18,45.5 24,49.0 18,52.5 z" fill="#db441a" stroke="none" /><path d="M 18,52.5 24,49.0 30,52.5 24,56.0 z" fill="#8e8e8e" stroke="none" /><path d="M 24,56.0 30,52.5 36,56.0 30,59.5 z" fill="#565656" stroke="none" /><path d="M 36,63.0 42,59.5 48,63.0 42,66.5 z" fill="#db441a" stroke="none" /><path d="M 42,66.5 48,63.0 54,66.5 48,70.0 z" fill="#8e8e8e" stroke="none" /><path d="M 48,70.0 54,66.5 60,70.0 54,73.5 z" fill="#8e8e8e" stroke="none" /><path d="M 60,77.0 66,73.5 72,77.0 66,80.5 z" fill="#db441a" stroke="none" /><path d="M 66,80.5 72,77.0 78,80.5 72,84.0 z" fill="#565656" stroke="none" /><path d="M 72,84.0 78,80.5 84,84.0 78,87.5 z" fill="#8e8e8e" stroke="none" /><path d="M 84,91.0 90,87.5 96,91.0 90,94.5 z" fill="#db441a" stroke="none" /><path d="M 90,94.5 96,91.0 102,94.5 96,98.0 z" fill="#565656" stroke="none" /><path d="M 96,98.0 102,94.5 108,98.0 102,101.5 z" fill="#8e8e8e" stroke="none" /><path d="M 6,52.5 12,49.0 18,52.5 12,56.0 z" fill="#db441a" stroke="none" /><path d="M 12,56.0 18,52.5 24,56.0 18,59.5 z" fill="#8e8e8e" stroke="none" /><path d="M 18,59.5 24,56.0 30,59.5 24,63.0 z" fill="#8e8e8e" stroke="none" /><path d="M 30,66.5 36,63.0 42,66.5 36,70.0 z" fill="#db441a" stroke="none" /><path d="M 36,70.0 42,66.5 48,70.0 42,73.5 z" fill="#8e8e8e" stroke="none" /><path d="M 42,73.5 48,70.0 54,73.5 48,77.0 z" fill="#8e8e8e" stroke="none" /><path d="M 54,80.5 60,77.0 66,80.5 60,84.0 z" fill="#db441a" stroke="none" /><path d="M 60,84.0 66,80.5 72,84.0 66,87.5 z" fill="#8e8e8e" stroke="none" /><path d="M 66,87.5 72,84.0 78,87.5 72,91.0 z" fill="#8e8e8e" stroke="none" /><path d="M 78,94.5 84,91.0 90,94.5 84,98.0 z" fill="#db441a" stroke="none" /><path d="M 84,98.0 90,94.5 96,98.0 90,101.5 z" fill="#8e8e8e" stroke="none" /><path d="M 90,101.5 96,98.0 102,101.5 96,105.0 z" fill="#8e8e8e" stroke="none" /><path d="M 0,56.0 6,52.5 12,56.0 6,59.5 z" fill="#a83414" stroke="none" /><path d="M 24,70.0 30,66.5 36,70.0 30,73.5 z" fill="#a83414" stroke="none" /><path d="M 48,84.0 54,80.5 60,84.0 54,87.5 z" fill="#a83414" stroke="none" /><path d="M 72,98.0 78,94.5 84,98.0 78,101.5 z" fill="#a83414" stroke="none" /></g></svg>