<?xml version="1.0" standalone="no"?>
<!DOCTYPE svg PUBLIC "-//W3C//DTD SVG 20010904//EN"
 "http://www.w3.org/TR/2001/REC-SVG-20010904/DTD/svg10.dtd">
<svg version="1.0" xmlns="http://www.w3.org/2000/svg"
 width="1164.000000pt" height="1280.000000pt" viewBox="0 0 1164.000000 1280.000000"
 preserveAspectRatio="xMidYMid meet">
<metadata>
Created by potrace 1.15, written by Peter Selinger 2001-2017
</metadata>
<g transform="translate(0.000000,1280.000000) scale(0.100000,-0.100000)"
fill="#000000" stroke="none">
<path d="M4265 12789 c-79 -12 -116 -24 -207 -71 -156 -80 -238 -198 -246
-353 -4 -69 -2 -83 16 -105 l20 -25 23 20 c12 11 37 44 56 73 18 28 36 52 38
52 3 0 -11 -30 -31 -67 -19 -36 -34 -76 -32 -87 7 -48 154 -8 273 74 121 83
151 137 165 292 14 155 13 208 -2 207 -7 -1 -40 -5 -73 -10z"/>
<path d="M7300 12728 c1 -139 18 -258 45 -304 51 -87 242 -209 346 -221 68 -8
72 9 26 103 -20 41 -35 74 -33 74 2 0 22 -29 45 -64 36 -55 57 -76 77 -76 2 0
11 14 20 32 22 42 14 140 -17 223 -34 88 -127 179 -239 232 -81 39 -134 55
-227 67 l-43 6 0 -72z"/>
<path d="M3630 12584 c-106 -27 -198 -81 -286 -168 -97 -96 -133 -160 -142
-255 -9 -85 1 -188 20 -207 23 -23 44 -7 80 61 18 35 34 63 35 61 2 -1 -4 -23
-13 -49 -46 -136 21 -140 204 -14 162 111 186 164 181 402 -2 92 -8 168 -14
173 -6 6 -30 5 -65 -4z"/>
<path d="M7944 12565 c-3 -14 -7 -94 -8 -178 -1 -139 1 -156 22 -202 36 -79
124 -158 254 -229 125 -69 152 -41 101 104 -2 8 13 -14 34 -50 47 -78 67 -86
89 -34 12 29 15 62 12 139 -3 85 -8 109 -33 158 -61 122 -206 246 -344 292
-95 32 -119 32 -127 0z"/>
<path d="M2947 12260 c-166 -71 -273 -182 -342 -355 -38 -96 -33 -193 18 -315
21 -51 38 -79 41 -70 3 8 24 69 47 135 36 106 58 160 59 145 0 -3 -7 -27 -15
-53 -40 -133 -39 -207 4 -207 55 0 275 204 316 292 39 85 40 127 10 271 -14
71 -25 140 -23 155 2 23 -1 27 -22 29 -14 1 -56 -11 -93 -27z"/>
<path d="M8587 12283 c-4 -3 -7 -25 -7 -48 0 -23 -10 -89 -21 -146 -26 -126
-22 -194 16 -270 48 -95 266 -285 319 -277 36 5 32 101 -10 235 -4 15 -4 15 4
3 5 -8 29 -70 52 -137 24 -68 46 -123 50 -123 16 0 73 168 77 231 10 119 -53
258 -170 377 -86 88 -281 185 -310 155z"/>
<path d="M4315 12189 c-45 -10 -175 -69 -175 -80 0 -4 29 -19 65 -34 75 -32
79 -43 8 -22 -89 26 -98 -4 -24 -86 86 -93 221 -146 342 -133 65 6 198 53 206
71 7 19 -106 202 -148 240 -55 49 -168 68 -274 44z"/>
<path d="M7137 12186 c-26 -7 -59 -24 -73 -37 -38 -36 -154 -213 -154 -236 0
-15 16 -25 78 -46 99 -34 163 -42 236 -28 127 23 218 86 267 182 16 32 29 60
29 62 0 3 -30 -6 -66 -20 -37 -13 -69 -22 -71 -20 -2 3 26 17 62 33 36 16 65
31 65 35 0 3 -31 20 -68 37 -110 51 -210 63 -305 38z"/>
<path d="M3875 12003 c-94 -20 -205 -79 -205 -108 0 -8 21 -26 48 -40 l47 -25
-45 6 c-25 3 -49 7 -55 8 -5 0 -11 -9 -13 -21 -9 -56 142 -158 273 -183 50
-10 72 -9 130 5 62 14 196 67 219 86 8 7 -46 87 -122 176 -72 86 -169 119
-277 96z"/>
<path d="M7595 11986 c-29 -13 -69 -44 -94 -72 -44 -51 -131 -168 -131 -178 0
-8 97 -52 169 -77 72 -25 184 -25 256 0 103 36 205 121 205 170 0 11 -12 12
-57 7 l-58 -6 40 23 c58 33 55 64 -10 99 -110 59 -238 73 -320 34z"/>
<path d="M3434 11904 c-27 -14 -58 -34 -68 -44 -51 -50 78 -14 137 38 44 39 1
43 -69 6z"/>
<path d="M8130 11922 c0 -15 44 -49 98 -76 44 -22 53 -24 58 -12 9 23 -2 34
-66 66 -59 30 -90 37 -90 22z"/>
<path d="M2292 11830 c-152 -102 -238 -215 -281 -370 -37 -131 -24 -207 62
-376 l25 -49 10 40 c6 22 23 87 38 145 14 58 29 108 33 112 4 4 3 -41 -2 -101
-8 -119 0 -161 32 -161 46 0 207 185 274 314 45 89 42 141 -19 341 -35 113
-54 161 -65 163 -9 2 -57 -24 -107 -58z"/>
<path d="M9225 11878 c-2 -7 -9 -38 -16 -68 -6 -30 -27 -97 -45 -148 -46 -125
-46 -183 -1 -277 61 -126 234 -320 281 -313 20 3 21 9 21 140 -1 75 0 136 2
135 1 -1 18 -65 38 -142 20 -77 39 -147 42 -155 8 -24 83 146 100 227 42 205
-83 425 -331 582 -53 33 -84 39 -91 19z"/>
<path d="M3285 11817 c-44 -25 -59 -57 -27 -57 25 0 87 42 87 60 0 22 -17 21
-60 -3z"/>
<path d="M8300 11827 c0 -15 88 -82 97 -73 3 3 24 -10 47 -28 22 -18 114 -83
202 -145 730 -506 1272 -1144 1665 -1955 235 -488 400 -1024 463 -1507 37
-286 46 -970 16 -1299 -28 -309 -132 -751 -264 -1122 -335 -941 -956 -1789
-1731 -2363 -115 -86 -318 -223 -396 -268 l-46 -27 -61 21 -62 21 26 31 c41
49 84 147 84 192 0 70 -72 327 -103 370 -13 17 -17 17 -48 5 -66 -26 -189
-112 -238 -166 -59 -64 -106 -155 -123 -235 -7 -33 -16 -59 -20 -59 -5 0 -37
7 -71 16 -61 15 -63 17 -87 67 -25 51 -26 52 -67 50 -23 -1 -63 -11 -89 -23
l-47 -20 -136 29 c-506 110 -976 161 -1486 161 -506 0 -931 -46 -1445 -156
l-170 -37 -48 21 c-27 12 -67 24 -88 28 -46 7 -66 -9 -87 -71 -13 -36 -19 -41
-73 -57 -32 -10 -64 -18 -69 -18 -6 0 -16 26 -23 57 -15 74 -63 175 -109 232
-45 54 -138 123 -220 164 -77 38 -82 35 -122 -86 -84 -256 -82 -327 14 -457
l35 -47 -56 -21 -55 -22 -82 52 c-550 344 -995 750 -1372 1253 -480 639 -785
1330 -950 2148 -54 269 -59 351 -59 897 -1 536 4 613 50 883 108 627 328 1212
670 1787 224 377 474 692 795 1005 230 224 414 373 723 585 129 88 157 113
143 126 -22 23 -444 -273 -682 -478 -963 -831 -1583 -1958 -1769 -3218 -34
-233 -48 -444 -49 -745 0 -610 69 -1043 259 -1613 363 -1090 1063 -2014 2033
-2680 l104 -72 -34 -14 c-19 -8 -92 -39 -163 -70 -71 -31 -131 -55 -132 -53
-1 1 22 22 51 47 30 25 54 47 54 50 1 3 -81 11 -181 18 -166 11 -506 56 -518
69 -3 3 33 1 80 -3 136 -14 488 -9 534 7 22 8 41 19 43 26 7 21 -138 158 -232
219 -172 112 -345 170 -482 162 -71 -4 -93 -12 -243 -80 -91 -42 -189 -84
-218 -93 -42 -14 -52 -22 -52 -39 0 -34 51 -107 136 -196 207 -217 432 -318
686 -308 l104 3 -151 -83 c-403 -224 -675 -450 -675 -561 0 -34 8 -45 88 -122
48 -46 149 -144 225 -217 l137 -133 -32 -14 c-18 -8 -310 -138 -648 -289 -604
-269 -615 -275 -615 -303 0 -28 1 -28 120 -55 66 -15 230 -46 365 -68 135 -23
249 -42 254 -43 12 -4 -284 -370 -473 -585 -114 -130 -161 -191 -161 -208 l0
-24 37 19 c49 25 173 83 649 306 878 412 1258 602 1581 791 340 199 553 369
608 485 l17 35 86 -30 c79 -27 102 -30 249 -34 177 -5 294 7 379 39 111 42
254 155 315 250 33 52 73 165 63 180 -10 16 -40 10 -117 -26 -42 -19 -114 -48
-160 -64 -102 -36 -347 -105 -353 -99 -2 2 47 24 109 47 148 57 425 192 461
226 29 27 29 28 11 42 -40 28 -213 75 -345 93 -74 10 -132 19 -129 19 4 1 40
8 81 16 l75 16 154 -35 c85 -19 253 -54 374 -77 361 -68 469 -101 643 -195
305 -166 554 -477 607 -757 21 -113 34 -155 47 -163 15 -10 45 27 108 131 59
98 59 91 0 232 -138 322 -390 587 -721 753 -105 53 -286 108 -482 145 -103 19
-200 35 -215 35 -20 1 -23 3 -12 9 21 13 315 39 583 52 231 11 516 3 761 -22
169 -17 166 -19 -68 -59 -318 -55 -417 -82 -431 -118 -7 -18 53 -74 105 -97
37 -17 43 -17 202 10 199 33 567 105 705 138 l101 25 77 -19 c43 -10 80 -21
83 -24 3 -3 -19 -5 -49 -5 -130 0 -419 -67 -459 -107 -13 -13 -12 -17 15 -39
60 -49 381 -201 523 -248 29 -10 51 -20 49 -23 -14 -13 -377 99 -508 158 -48
22 -97 39 -109 39 -20 0 -22 -4 -17 -36 11 -68 65 -163 129 -231 72 -75 186
-154 256 -177 154 -51 494 -46 656 9 26 9 49 15 50 13 1 -2 12 -19 25 -40 67
-112 335 -313 676 -508 219 -125 843 -435 1355 -674 234 -110 514 -242 623
-294 108 -52 200 -92 203 -89 16 16 -15 62 -117 177 -204 228 -523 619 -514
628 2 2 88 17 192 33 182 29 439 78 516 99 31 9 37 15 37 38 -1 26 -22 36
-553 271 -304 135 -595 264 -646 288 l-95 44 90 90 c49 49 149 144 221 212
125 115 133 124 133 160 0 45 -16 78 -66 138 -96 115 -343 295 -597 434 l-127
70 142 6 c156 7 208 19 323 75 192 94 468 370 429 431 -5 8 -38 24 -74 37 -36
13 -130 54 -210 91 -137 65 -150 69 -231 73 -66 3 -103 -1 -161 -17 -96 -26
-225 -85 -319 -146 -84 -55 -233 -197 -227 -216 10 -32 79 -42 288 -43 113 -1
241 2 285 6 l80 7 -90 -19 c-126 -26 -316 -48 -472 -56 -73 -4 -133 -10 -133
-13 0 -3 17 -21 37 -39 21 -19 31 -31 23 -28 -52 18 -269 112 -270 116 0 3 35
28 77 55 103 67 301 216 443 334 164 135 544 520 683 690 504 621 844 1297
1031 2054 169 683 197 1269 95 1987 -75 529 -222 1000 -468 1506 -198 406
-422 752 -712 1099 -116 139 -389 415 -544 552 -217 192 -615 484 -700 514
-19 7 -35 17 -35 21 0 7 -92 58 -105 58 -3 0 -5 -6 -5 -13z m-4627 -8670 c-8
-13 -19 4 -37 57 -22 69 -20 70 13 6 16 -30 27 -59 24 -63z m4344 72 c-8 -19
-17 -42 -20 -52 -4 -10 -11 -16 -16 -13 -5 4 2 29 15 57 28 56 42 62 21 8z
m-4118 -1136 c-85 -98 -194 -213 -202 -213 -10 0 -135 88 -143 101 -3 5 12 17
33 26 53 22 326 122 337 123 4 0 -7 -17 -25 -37z m4064 -58 c65 -26 117 -49
115 -50 -16 -16 -130 -95 -136 -95 -7 0 -176 178 -211 223 -16 20 5 13 232
-78z"/>
<path d="M3374 11730 c-122 -32 -214 -89 -201 -124 3 -8 28 -22 54 -30 l48
-16 -68 3 c-37 1 -67 0 -67 -4 0 -8 60 -63 112 -102 126 -94 329 -88 491 17
32 19 57 43 57 51 0 20 -165 192 -202 211 -37 19 -138 17 -224 -6z"/>
<path d="M8055 11734 c-42 -21 -205 -185 -205 -206 0 -23 41 -53 136 -99 74
-36 87 -39 165 -39 105 0 169 18 247 71 97 64 94 105 -7 94 -68 -7 -62 1 15
21 32 8 64 20 69 25 12 13 -51 71 -109 101 -85 44 -255 61 -311 32z"/>
<path d="M2990 11453 c-93 -18 -260 -133 -260 -178 0 -28 17 -35 120 -46 l75
-8 -90 5 c-49 2 -103 7 -119 11 l-30 6 43 -50 c65 -77 126 -106 236 -111 77
-4 101 0 168 22 114 38 217 108 217 147 0 21 -124 139 -184 174 -45 26 -123
39 -176 28z"/>
<path d="M8527 11446 c-85 -31 -227 -155 -227 -198 0 -71 204 -168 354 -168
89 0 150 19 225 68 63 42 62 43 -74 63 l-90 13 89 8 c130 11 146 33 73 102
-53 51 -126 91 -202 111 -71 18 -98 18 -148 1z"/>
<path d="M1688 11303 c-140 -135 -204 -245 -234 -398 -29 -147 2 -268 100
-387 26 -32 50 -58 54 -58 4 0 13 85 20 189 7 104 15 198 20 210 4 11 7 -48 7
-132 0 -145 14 -237 34 -237 5 0 41 34 80 76 84 90 165 240 183 341 11 57 9
67 -20 160 -32 101 -102 255 -129 286 -9 9 -23 17 -31 17 -7 0 -45 -30 -84
-67z"/>
<path d="M9836 11337 c-54 -70 -146 -312 -146 -383 0 -106 83 -275 189 -386
40 -43 77 -78 81 -78 18 0 30 99 30 241 0 84 3 150 6 146 3 -3 12 -85 19 -182
15 -200 22 -221 68 -185 15 12 46 59 69 106 37 76 42 94 46 173 2 48 -1 112
-7 143 -16 73 -70 185 -126 258 -49 64 -173 180 -192 180 -7 0 -23 -15 -37
-33z"/>
<path d="M2533 11075 c-61 -19 -121 -56 -176 -110 -51 -51 -69 -91 -46 -107 8
-5 66 -7 134 -4 l120 5 -106 -18 c-103 -18 -149 -33 -149 -50 0 -10 28 -35 56
-49 62 -32 278 -32 359 0 63 24 251 178 234 191 -2 2 -45 29 -96 61 -140 88
-235 111 -330 81z"/>
<path d="M8957 11080 c-21 -6 -52 -17 -70 -26 -52 -26 -197 -118 -197 -125 0
-18 154 -150 201 -172 144 -68 313 -62 410 15 28 22 49 42 46 44 -2 2 -57 11
-123 19 -159 21 -164 26 -19 19 102 -5 123 -4 133 9 19 22 -5 63 -70 122 -93
84 -210 120 -311 95z"/>
<path d="M1151 10664 c-85 -91 -150 -215 -176 -338 -25 -111 -17 -272 15 -341
27 -57 157 -195 183 -195 21 0 21 12 2 115 -17 93 -20 390 -5 400 6 4 10 -24
10 -77 0 -148 35 -365 66 -404 13 -18 16 -17 49 21 51 59 133 228 150 310 19
91 19 210 0 266 -13 38 -168 266 -208 306 -12 12 -23 4 -86 -63z"/>
<path d="M10319 10608 c-121 -162 -129 -179 -129 -303 0 -155 34 -265 124
-404 50 -77 72 -99 87 -84 27 27 68 283 70 433 1 68 2 72 11 40 13 -45 4 -333
-13 -417 -7 -35 -9 -66 -5 -70 22 -23 137 82 179 162 88 174 51 446 -88 635
-38 51 -119 130 -134 130 -6 0 -51 -55 -102 -122z"/>
<path d="M2194 10676 c-135 -43 -293 -191 -270 -251 6 -16 16 -17 94 -12 48 4
98 9 112 13 19 4 21 3 10 -5 -12 -8 -90 -29 -177 -47 -15 -3 -23 -12 -23 -24
0 -27 33 -46 118 -66 68 -16 77 -16 148 -1 95 21 164 52 231 106 51 41 113
122 113 148 0 31 -196 133 -281 147 -19 3 -53 -1 -75 -8z"/>
<path d="M9303 10661 c-62 -23 -138 -63 -177 -95 -41 -32 -30 -67 43 -136 112
-106 213 -150 346 -150 84 0 136 13 160 40 16 18 17 22 4 35 -8 8 -45 25 -82
38 -83 29 -91 36 -30 26 80 -13 149 -11 163 6 17 21 -14 68 -97 145 -114 107
-211 133 -330 91z"/>
<path d="M1855 10211 c-102 -25 -230 -146 -267 -251 -22 -64 12 -69 167 -24
44 13 81 22 83 20 1 -2 -49 -25 -113 -51 -64 -27 -118 -52 -121 -56 -8 -14 40
-39 100 -51 178 -35 391 75 485 251 40 76 42 74 -82 121 -117 46 -186 57 -252
41z"/>
<path d="M9680 10214 c-83 -16 -238 -78 -247 -99 -2 -8 9 -39 26 -69 94 -164
240 -251 421 -250 89 0 160 21 160 47 0 7 -49 33 -116 61 -63 27 -114 50 -112
51 2 2 39 -7 83 -20 44 -12 98 -24 120 -26 37 -4 40 -2 43 23 7 59 -103 200
-196 251 -48 26 -131 40 -182 31z"/>
<path d="M708 9960 c-33 -26 -90 -136 -121 -236 -98 -312 -25 -551 210 -685
30 -17 57 -28 60 -25 3 3 -10 66 -30 138 -39 145 -61 247 -55 254 3 2 17 -38
32 -89 15 -50 45 -129 66 -174 51 -109 69 -111 112 -16 53 117 79 242 81 383
3 165 -7 184 -167 348 -128 129 -143 138 -188 102z"/>
<path d="M10775 9886 c-167 -171 -212 -263 -202 -416 9 -120 72 -331 117 -390
16 -20 22 -23 37 -14 30 18 60 82 104 217 23 70 43 126 45 124 6 -6 -39 -203
-67 -296 -16 -51 -29 -98 -29 -103 0 -19 124 59 180 113 152 148 183 387 83
654 -31 84 -88 181 -113 195 -41 22 -62 11 -155 -84z"/>
<path d="M1569 9707 c-77 -22 -137 -76 -208 -186 -67 -104 -78 -171 -29 -171
13 0 70 20 128 45 115 48 106 36 -33 -40 -49 -27 -90 -54 -91 -60 -1 -5 15
-18 34 -27 111 -56 353 27 444 151 36 49 116 206 116 227 0 13 -178 59 -265
68 -27 3 -71 0 -96 -7z"/>
<path d="M9960 9714 c-60 -11 -241 -57 -244 -63 -2 -3 16 -48 41 -99 60 -125
137 -208 241 -260 72 -35 81 -37 172 -37 75 0 102 4 123 18 15 10 25 22 22 28
-4 5 -41 27 -83 49 -77 39 -170 96 -142 87 8 -3 53 -22 100 -43 98 -43 152
-50 158 -20 2 11 -15 58 -39 105 -48 93 -129 186 -189 213 -38 18 -120 29
-160 22z"/>
<path d="M367 9152 c-33 -35 -91 -161 -106 -231 -6 -30 -12 -130 -12 -222 0
-139 4 -176 19 -217 26 -67 83 -151 140 -204 46 -43 184 -118 218 -118 23 0
13 37 -56 207 -32 79 -57 143 -55 143 2 0 25 -40 50 -89 61 -118 121 -201 145
-201 27 0 46 42 64 141 23 132 28 217 16 316 -18 166 -61 241 -188 330 -137
95 -173 125 -182 149 -12 31 -20 30 -53 -4z"/>
<path d="M10115 9161 c-77 -9 -145 -19 -152 -24 -16 -10 10 -115 48 -193 87
-177 243 -269 446 -262 l87 3 -87 68 c-48 37 -87 70 -87 73 0 2 31 -12 70 -31
38 -19 81 -35 95 -35 23 0 25 4 25 44 0 68 -72 203 -160 299 -83 89 -61 85
-285 58z"/>
<path d="M11228 9153 c-7 -14 -59 -59 -116 -98 -204 -142 -244 -206 -258 -409
-11 -159 27 -394 69 -420 26 -16 65 29 142 163 36 63 65 112 65 109 0 -4 -25
-66 -56 -139 -31 -73 -57 -144 -57 -158 -3 -39 31 -38 117 3 91 44 166 123
222 233 l39 76 3 166 c4 191 -8 269 -58 374 -32 67 -74 127 -90 127 -5 0 -15
-12 -22 -27z"/>
<path d="M1299 9142 c-104 -67 -203 -229 -215 -354 -4 -38 -3 -68 2 -68 5 0
47 23 93 50 46 28 85 49 87 47 2 -2 -34 -32 -81 -68 l-85 -64 91 -3 c206 -6
355 81 443 260 37 75 66 182 53 195 -10 9 -205 32 -283 33 -49 0 -68 -5 -105
-28z"/>
<path d="M1310 8590 c-132 -10 -174 -24 -229 -75 -58 -54 -96 -127 -116 -220
-17 -80 -20 -171 -5 -180 12 -8 42 8 108 57 76 56 72 49 -28 -56 l-55 -58 89
5 c78 4 98 10 171 46 166 82 265 240 265 424 l0 67 -52 -2 c-29 0 -96 -4 -148
-8z"/>
<path d="M10142 8507 c3 -82 8 -102 41 -171 48 -101 138 -194 232 -237 52 -25
84 -32 150 -37 47 -2 85 -1 85 4 0 5 -30 40 -67 78 -73 74 -71 75 25 8 86 -60
97 -55 88 47 -15 184 -85 312 -198 361 -47 20 -198 39 -327 40 l-33 0 4 -93z"/>
<path d="M133 8242 c-29 -18 -64 -144 -83 -293 -25 -207 44 -402 195 -554 91
-91 159 -125 267 -132 43 -3 78 -3 78 0 0 4 -33 55 -74 114 -65 97 -155 245
-109 183 59 -82 144 -177 181 -203 78 -57 97 -14 89 198 -13 333 -83 462 -312
573 -60 30 -131 69 -158 88 -50 36 -55 38 -74 26z"/>
<path d="M11445 8219 c-22 -17 -90 -55 -152 -85 -141 -69 -201 -122 -248 -217
-53 -109 -66 -173 -72 -353 -6 -179 3 -234 39 -234 25 0 145 115 194 186 21
30 39 54 41 54 11 0 -80 -147 -156 -252 l-42 -58 59 0 c130 0 248 62 335 176
53 68 122 215 143 302 39 165 -22 513 -90 512 -6 0 -29 -14 -51 -31z"/>
<path d="M1252 8004 c-112 -23 -174 -42 -201 -59 -80 -50 -146 -169 -160 -285
-6 -54 4 -208 14 -219 3 -2 41 31 85 74 44 44 80 77 80 74 0 -3 -22 -34 -50
-70 -75 -96 -65 -120 37 -93 92 23 177 70 224 122 50 56 103 165 117 242 11
56 27 251 20 249 -1 -1 -76 -17 -166 -35z"/>
<path d="M10240 8004 c-25 -65 1 -239 52 -341 40 -81 111 -160 175 -195 53
-29 186 -64 203 -53 16 10 2 44 -41 103 -22 28 -36 52 -32 52 4 0 40 -33 80
-72 l73 -72 0 125 c0 80 -6 146 -15 184 -41 156 -150 255 -282 255 -22 0 -75
9 -118 20 -43 11 -80 20 -82 20 -2 0 -8 -12 -13 -26z"/>
<path d="M1311 7409 c-59 -11 -194 -55 -248 -81 -103 -48 -157 -167 -158 -343
0 -83 4 -110 24 -158 l23 -57 42 53 c103 133 114 142 44 33 -42 -66 -46 -81
-21 -90 21 -8 109 18 148 44 52 34 149 137 182 192 42 69 55 144 51 285 -2 88
-6 116 -18 123 -8 5 -17 9 -20 9 -3 -1 -25 -5 -49 -10z"/>
<path d="M10258 7398 c-21 -37 -18 -250 5 -315 22 -61 100 -176 152 -221 78
-69 171 -111 215 -97 26 8 25 23 -3 65 -61 90 -62 96 -6 43 93 -90 119 -70
119 90 0 150 -35 272 -92 323 -35 33 -92 59 -203 92 -151 47 -171 49 -187 20z"/>
<path d="M26 7242 c-2 -4 -10 -48 -17 -98 -36 -273 60 -543 259 -725 69 -63
130 -92 239 -114 79 -16 85 -16 120 2 52 25 53 46 5 78 -34 22 -174 175 -197
215 -5 8 26 -17 69 -57 87 -82 189 -153 217 -153 11 0 23 8 26 17 19 50 -52
384 -106 497 -38 79 -111 160 -182 203 -30 18 -103 46 -164 64 -60 17 -136 42
-167 55 -59 25 -93 30 -102 16z"/>
<path d="M11510 7223 c-36 -14 -109 -38 -162 -53 -54 -16 -120 -41 -148 -56
-66 -36 -150 -126 -188 -200 -52 -104 -116 -377 -110 -471 3 -46 4 -48 31 -46
33 2 125 66 222 154 103 95 47 20 -81 -108 -92 -92 -101 -104 -88 -118 23 -22
58 -28 126 -21 152 18 246 73 353 209 86 109 130 200 150 312 20 113 30 339
18 385 -12 45 -36 48 -123 13z"/>
<path d="M1269 6767 c-188 -92 -207 -110 -251 -236 -45 -129 -4 -381 62 -381
14 0 35 22 67 73 66 103 68 103 23 -1 -22 -51 -40 -97 -40 -103 0 -35 142 32
206 98 52 53 120 188 138 274 10 47 11 83 4 134 -12 92 -49 199 -68 202 -8 1
-72 -26 -141 -60z"/>
<path d="M10216 6802 c-18 -34 -42 -129 -51 -198 -12 -94 41 -247 124 -362 33
-45 131 -115 177 -126 54 -14 53 9 -10 157 -22 51 -13 47 20 -10 40 -70 84
-123 100 -123 30 0 73 161 74 276 0 117 -59 232 -151 290 -33 21 -252 124
-263 124 -3 0 -12 -13 -20 -28z"/>
<path d="M120 6200 c-14 -27 3 -197 31 -299 68 -255 251 -471 456 -542 63 -22
231 -26 296 -8 55 15 48 38 -27 87 -70 46 -254 191 -276 216 -7 10 29 -11 81
-46 124 -83 259 -151 282 -143 29 12 32 54 9 144 -28 107 -115 285 -184 375
-98 127 -174 161 -440 196 -86 11 -169 25 -183 30 -34 13 -33 13 -45 -10z"/>
<path d="M1485 6194 c-80 -42 -192 -123 -234 -169 -92 -100 -96 -294 -8 -459
45 -86 66 -87 105 -4 16 35 37 84 47 111 26 68 29 52 5 -26 -31 -101 -39 -154
-26 -172 10 -14 17 -12 58 19 135 103 218 258 218 407 0 102 -70 319 -103 319
-8 0 -36 -12 -62 -26z"/>
<path d="M10073 6200 c-48 -51 -81 -253 -63 -382 12 -82 45 -149 122 -244 53
-66 94 -101 124 -106 17 -3 19 3 18 47 -1 28 -11 81 -22 120 -12 38 -20 70
-18 72 2 2 20 -36 40 -85 47 -113 59 -131 83 -116 59 36 107 171 108 304 0 86
-3 101 -30 155 -33 67 -97 124 -223 200 -93 57 -114 63 -139 35z"/>
<path d="M11450 6204 c-30 -7 -98 -18 -150 -25 -254 -30 -333 -63 -424 -178
-121 -151 -189 -303 -216 -481 -16 -108 -22 -106 98 -38 59 33 139 81 177 106
39 25 81 51 95 59 l25 15 -25 -22 c-14 -13 -70 -59 -125 -102 -169 -133 -175
-139 -175 -158 0 -30 94 -54 177 -46 83 9 203 48 263 86 158 101 300 337 344
570 20 101 21 216 4 222 -7 2 -38 -1 -68 -8z"/>
<path d="M1721 5627 c-5 -13 -50 -57 -101 -97 -113 -92 -156 -149 -172 -225
-21 -106 16 -254 95 -378 61 -96 92 -71 133 105 10 43 19 76 21 74 2 -1 -4
-65 -12 -141 -9 -76 -14 -140 -11 -142 8 -8 157 169 181 217 33 65 55 151 55
216 0 102 -50 247 -122 352 -32 47 -54 53 -67 19z"/>
<path d="M9859 5608 c-105 -143 -145 -341 -99 -489 34 -111 156 -270 196 -255
14 5 16 15 10 66 -3 33 -8 88 -11 123 -5 62 -5 61 24 -43 36 -126 46 -150 65
-150 39 0 138 195 158 309 11 63 10 81 -5 138 -23 87 -66 144 -167 222 -46 36
-90 77 -99 93 -22 38 -36 35 -72 -14z"/>
<path d="M547 5173 l-148 -4 7 -37 c11 -64 55 -194 89 -267 108 -226 281 -392
473 -452 74 -23 94 -25 190 -21 125 6 222 36 222 69 0 24 -33 44 -236 148
-194 99 -236 127 -99 67 116 -50 278 -104 341 -113 44 -6 44 -6 44 26 0 73
-147 306 -267 424 -92 91 -140 125 -201 144 -53 15 -206 21 -415 16z"/>
<path d="M10751 5170 c-35 -5 -89 -21 -119 -36 -111 -54 -297 -272 -382 -449
-41 -84 -47 -113 -24 -122 27 -10 166 29 321 91 76 30 130 49 121 42 -9 -7
-107 -58 -217 -115 -110 -56 -205 -109 -211 -116 -9 -11 7 -19 84 -44 366
-117 728 121 880 579 19 58 37 120 41 138 l7 32 -109 0 c-59 0 -157 2 -218 4
-60 3 -139 1 -174 -4z"/>
<path d="M1967 4988 c-165 -175 -191 -236 -163 -374 20 -101 73 -209 136 -276
41 -45 51 -51 66 -42 21 12 40 78 50 171 9 86 24 90 24 5 0 -38 3 -104 6 -146
l7 -76 64 96 c84 125 93 153 93 283 0 172 -42 301 -125 387 -59 62 -76 59
-158 -28z"/>
<path d="M9520 5014 c-51 -56 -96 -148 -115 -240 -37 -174 -1 -329 107 -465
l43 -54 6 75 c4 41 7 111 8 154 0 44 3 77 5 75 3 -3 12 -54 21 -114 16 -110
33 -155 59 -155 22 0 101 96 136 164 41 81 60 156 60 239 0 83 -17 120 -103
219 -144 168 -159 175 -227 102z"/>
<path d="M2356 4460 c-109 -155 -131 -207 -130 -300 1 -99 29 -170 107 -267
63 -78 148 -153 174 -153 13 0 15 23 12 164 -4 174 4 185 22 33 6 -51 15 -102
20 -115 24 -60 96 15 125 128 32 124 0 314 -74 439 -27 46 -128 153 -162 171
-15 8 -29 -8 -94 -100z"/>
<path d="M9128 4498 c-46 -45 -86 -96 -106 -135 -87 -167 -96 -400 -20 -513
54 -79 85 -62 99 55 20 158 28 153 22 -12 -3 -92 -2 -163 3 -163 18 0 138 100
181 151 75 88 113 187 116 302 1 51 -3 73 -25 115 -29 56 -179 271 -189 272
-4 0 -40 -33 -81 -72z"/>
<path d="M1335 4244 c-16 -3 -88 -20 -160 -39 -71 -18 -152 -37 -180 -41 -90
-12 -93 -24 -31 -150 127 -259 361 -456 597 -500 99 -19 237 -14 314 11 71 23
145 79 145 109 0 27 -16 36 -63 36 -63 0 -325 82 -447 139 -49 23 -42 22 70
-9 108 -30 303 -60 388 -60 58 0 74 3 79 16 9 24 -22 75 -99 165 -118 136
-272 252 -397 300 -52 19 -162 31 -216 23z"/>
<path d="M10161 4240 c-109 -23 -244 -106 -371 -227 -133 -126 -210 -233 -188
-260 29 -35 384 11 553 73 14 5 17 4 10 -3 -30 -31 -358 -139 -455 -150 -101
-11 -112 -30 -51 -86 67 -60 137 -81 281 -81 228 -2 355 52 538 228 95 91 185
219 225 319 35 86 28 102 -45 111 -29 4 -114 23 -188 42 -148 38 -242 48 -309
34z"/>
<path d="M2823 3974 c-108 -227 -117 -293 -58 -411 54 -109 253 -287 300 -269
22 8 19 62 -15 225 -17 79 -28 146 -26 148 2 3 16 -35 31 -84 44 -145 85 -243
101 -243 9 0 27 25 42 58 73 159 18 407 -122 560 -54 57 -158 132 -186 132 -6
0 -36 -52 -67 -116z"/>
<path d="M8665 4039 c-94 -63 -161 -149 -206 -264 -56 -141 -51 -342 10 -416
18 -21 21 -22 35 -9 8 8 40 87 70 175 30 88 55 157 55 154 1 -3 -12 -70 -29
-147 -35 -163 -38 -227 -14 -236 24 -9 130 63 202 137 70 74 122 169 129 241
4 39 -1 69 -20 126 -39 115 -124 290 -141 290 -8 0 -49 -23 -91 -51z"/>
<path d="M5421 1908 c-162 -175 -284 -360 -337 -510 -29 -82 -18 -116 78 -265
l63 -97 17 105 c43 274 131 437 373 687 65 67 116 124 114 126 -9 8 -169 86
-177 86 -5 0 -64 -60 -131 -132z"/>
</g>
</svg>
